<!DOCTYPE svg PUBLIC "-//W3C//DTD SVG 1.1//EN" "http://www.w3.org/Graphics/SVG/1.1/DTD/svg11.dtd">
                <svg xmlns="http://www.w3.org/2000/svg" xmlns:xlink="http://www.w3.org/1999/xlink" 
                width="462" height="460">
                
                <g>
                   <rect x="50" y="65"
            width="186" height="30"
            rx="3" ry="3"
            style="fill:#90caf9; stroke:#444; stroke-width:1" />
                   <title>module.exports = {*}</title>
            <text x="65" y="85"
                font-family="monospace" font-size="13" fill="#222">
                <tspan x="65" y="85">module.exports = {*}</tspan>
            </text>
                   
                   
                </g>
                <g>
                   <rect x="87" y="113.5"
            width="115.8" height="30"
            rx="2" ry="2"
            style="fill:#90caf9; stroke:#444; stroke-width:1" />
                   <title>in: &apos;white&apos;</title>
            <text x="102" y="133.5"
                font-family="monospace" font-size="13" fill="#222">
                <tspan x="102" y="133.5">in: &apos;white&apos;</tspan>
            </text>
                   
                   
                </g>
                <g>
                   <rect x="87" y="162"
            width="248.4" height="30"
            rx="2" ry="2"
            style="fill:#90caf9; stroke:#444; stroke-width:1" />
                   <title>//input
out: [&apos;cyan&apos;, &apos;bold&apos;]</title>
            <text x="102" y="182"
                font-family="monospace" font-size="13" fill="#222">
                <tspan x="102" y="182">//input
out: [&apos;cyan&apos;, &apos;bold&apos;]</tspan>
            </text>
                   
                   
                </g>
                <g>
                   <rect x="87" y="210.5"
            width="186" height="30"
            rx="2" ry="2"
            style="fill:#90caf9; stroke:#444; stroke-width:1" />
                   <title>//Output
inf: &apos;green&apos;</title>
            <text x="102" y="230.5"
                font-family="monospace" font-size="13" fill="#222">
                <tspan x="102" y="230.5">//Output
inf: &apos;green&apos;</tspan>
            </text>
                   
                   
                </g>
                <g>
                   <rect x="87" y="259"
            width="209.4" height="30"
            rx="2" ry="2"
            style="fill:#90caf9; stroke:#444; stroke-width:1" />
                   <title>//Information
err: &apos;red&apos;</title>
            <text x="102" y="279"
                font-family="monospace" font-size="13" fill="#222">
                <tspan x="102" y="279">//Information
err: &apos;red&apos;</tspan>
            </text>
                   
                   
                </g>
                <g>
                   <rect x="87" y="307.5"
            width="193.79999999999998" height="30"
            rx="2" ry="2"
            style="fill:#90caf9; stroke:#444; stroke-width:1" />
                   <title>//Error
warn: &apos;yellow&apos;</title>
            <text x="102" y="327.5"
                font-family="monospace" font-size="13" fill="#222">
                <tspan x="102" y="327.5">//Error
warn: &apos;yellow&apos;</tspan>
            </text>
                   
                   
                </g>
                <g>
                   <rect x="87" y="356"
            width="201.6" height="30"
            rx="2" ry="2"
            style="fill:#90caf9; stroke:#444; stroke-width:1" />
                   <title>//Warning
debug: &apos;grey&apos;</title>
            <text x="102" y="376"
                font-family="monospace" font-size="13" fill="#222">
                <tspan x="102" y="376">//Warning
debug: &apos;grey&apos;</tspan>
            </text>
                   
                   
                </g>
                <g>
                   <rect x="87" y="404.5"
            width="349.8" height="30"
            rx="2" ry="2"
            style="fill:#90caf9; stroke:#444; stroke-width:1" />
                   <title>//Debug statement
quest: &apos;blue&apos; //Question</title>
            <text x="102" y="424.5"
                font-family="monospace" font-size="13" fill="#222">
                <tspan x="102" y="424.5">//Debug statement
quest: &apos;blue&apos; //Question</tspan>
            </text>
                   
                   
                </g>
            <g>
               <rect x="25" y="13.75"
            width="216.6" height="24"
            style="fill:#fff59d; stroke:#444; stroke-width:1" />
               <circle cx="25" cy="25" r="15"
        style="fill:#fff59d; stroke:#444; stroke-width:1" />
               <title>Program: source module</title>
            <text x="55" y="30"
                font-family="monospace" font-size="13" fill="#222">
                <tspan x="55" y="30">Program: source module</tspan>
            </text>
            </g>
            <g>
               <path d="M25, 40 L25 76 Q25 80
                29 80
                L42 80 "
        style="fill:none; stroke:#444; stroke-width:1" />
               <path d="M42, 77 L50, 80 L42, 83 Z" 
        fill="#333" />
            </g>
            <g>
               <path d="M68.5, 95 L68.5 124.5 Q68.5 128.5
                72.5 128.5
                L87 128.5 "
        style="fill:none; stroke:#444; stroke-width:1" />
               false
            </g>
            <g>
               <path d="M68.5, 95 L68.5 173 Q68.5 177
                72.5 177
                L87 177 "
        style="fill:none; stroke:#444; stroke-width:1" />
               false
            </g>
            <g>
               <path d="M68.5, 95 L68.5 221.5 Q68.5 225.5
                72.5 225.5
                L87 225.5 "
        style="fill:none; stroke:#444; stroke-width:1" />
               false
            </g>
            <g>
               <path d="M68.5, 95 L68.5 270 Q68.5 274
                72.5 274
                L87 274 "
        style="fill:none; stroke:#444; stroke-width:1" />
               false
            </g>
            <g>
               <path d="M68.5, 95 L68.5 318.5 Q68.5 322.5
                72.5 322.5
                L87 322.5 "
        style="fill:none; stroke:#444; stroke-width:1" />
               false
            </g>
            <g>
               <path d="M68.5, 95 L68.5 367 Q68.5 371
                72.5 371
                L87 371 "
        style="fill:none; stroke:#444; stroke-width:1" />
               false
            </g>
            <g>
               <path d="M68.5, 95 L68.5 415.5 Q68.5 419.5
                72.5 419.5
                L87 419.5 "
        style="fill:none; stroke:#444; stroke-width:1" />
               false
            </g>
            </svg>