<!DOCTYPE svg PUBLIC "-//W3C//DTD SVG 1.1//EN" "http://www.w3.org/Graphics/SVG/1.1/DTD/svg11.dtd">
                <svg xmlns="http://www.w3.org/2000/svg" xmlns:xlink="http://www.w3.org/1999/xlink" 
                width="593" height="2796">
                
                <g>
                   <rect x="50" y="65"
            width="342" height="30"
            rx="3" ry="3"
            style="fill:#90caf9; stroke:#444; stroke-width:1" />
                   <title>const hmj = require(&apos;./src/hashmyjs.js&apos;)</title>
            <text x="65" y="85"
                font-family="monospace" font-size="13" fill="#222">
                <tspan x="65" y="85">const hmj = require(&apos;./src/hashmyjs.js&apos;)</tspan>
            </text>
                   
                   
                </g>
                <g>
                   <rect x="50" y="113.5"
            width="287.4" height="30"
            rx="3" ry="3"
            style="fill:#90caf9; stroke:#444; stroke-width:1" />
                   <title>const prgm = require(&apos;commander&apos;)</title>
            <text x="65" y="133.5"
                font-family="monospace" font-size="13" fill="#222">
                <tspan x="65" y="133.5">const prgm = require(&apos;commander&apos;)</tspan>
            </text>
                   
                   
                </g>
                <g>
                   <rect x="50" y="162"
            width="256.2" height="30"
            rx="3" ry="3"
            style="fill:#90caf9; stroke:#444; stroke-width:1" />
                   <title>const clr = require(&apos;colors&apos;)</title>
            <text x="65" y="182"
                font-family="monospace" font-size="13" fill="#222">
                <tspan x="65" y="182">const clr = require(&apos;colors&apos;)</tspan>
            </text>
                   
                   
                </g>
                <g>
                   <rect x="50" y="210.5"
            width="318.59999999999997" height="30"
            rx="3" ry="3"
            style="fill:#90caf9; stroke:#444; stroke-width:1" />
                   <title>const pkg = require(&apos;./package.json&apos;)</title>
            <text x="65" y="230.5"
                font-family="monospace" font-size="13" fill="#222">
                <tspan x="65" y="230.5">const pkg = require(&apos;./package.json&apos;)</tspan>
            </text>
                   
                   
                </g>
                <g>
                   <rect x="50" y="259"
            width="295.2" height="30"
            rx="2" ry="2"
            style="fill:#C5E1A5; stroke:#444; stroke-width:1" />
                   <title>clr.setTheme(require(&apos;./src/clr&apos;))</title>
            <text x="65" y="279"
                font-family="monospace" font-size="13" fill="#222">
                <tspan x="65" y="279">clr.setTheme(require(&apos;./src/clr&apos;))</tspan>
            </text>
                   
                   
                </g>
                <g>
                   <rect x="50" y="307.5"
            width="178.2" height="30"
            rx="3" ry="3"
            style="fill:#90caf9; stroke:#444; stroke-width:1" />
                   <title>let format = &apos;text&apos;</title>
            <text x="65" y="327.5"
                font-family="monospace" font-size="13" fill="#222">
                <tspan x="65" y="327.5">let format = &apos;text&apos;</tspan>
            </text>
                   
                   
                </g>
                <g>
                   <rect x="50" y="356"
            width="193.79999999999998" height="30"
            rx="3" ry="3"
            style="fill:#90caf9; stroke:#444; stroke-width:1" />
                   <title>let output = &apos;STDOUT&apos;</title>
            <text x="65" y="376"
                font-family="monospace" font-size="13" fill="#222">
                <tspan x="65" y="376">let output = &apos;STDOUT&apos;</tspan>
            </text>
                   
                   
                </g>
                <g>
                   <rect x="50" y="404.5"
            width="162.6" height="30"
            rx="3" ry="3"
            style="fill:#90caf9; stroke:#444; stroke-width:1" />
                   <title>let input = &apos;any&apos;</title>
            <text x="65" y="424.5"
                font-family="monospace" font-size="13" fill="#222">
                <tspan x="65" y="424.5">let input = &apos;any&apos;</tspan>
            </text>
                   
                   
                </g>
                <g>
                   <rect x="50" y="453"
            width="201.6" height="30"
            rx="3" ry="3"
            style="fill:#90caf9; stroke:#444; stroke-width:1" />
                   <title>let validInput = false</title>
            <text x="65" y="473"
                font-family="monospace" font-size="13" fill="#222">
                <tspan x="65" y="473">let validInput = false</tspan>
            </text>
                   
                   
                </g>
                <g>
                   <rect x="50" y="501.5"
            width="186" height="30"
            rx="3" ry="3"
            style="fill:#90caf9; stroke:#444; stroke-width:1" />
                   <title>let prettify = false</title>
            <text x="65" y="521.5"
                font-family="monospace" font-size="13" fill="#222">
                <tspan x="65" y="521.5">let prettify = false</tspan>
            </text>
                   
                   
                </g>
                <g>
                   <rect x="50" y="550"
            width="248.4" height="30"
            rx="2" ry="2"
            style="fill:#C5E1A5; stroke:#444; stroke-width:1" />
                   <title>prgm.arguments(&apos;[files...]&apos;)</title>
            <text x="65" y="570"
                font-family="monospace" font-size="13" fill="#222">
                <tspan x="65" y="570">prgm.arguments(&apos;[files...]&apos;)</tspan>
            </text>
                   
                   
                </g>
                <g>
                   <rect x="50" y="598.5"
            width="193.79999999999998" height="30"
            rx="2" ry="2"
            style="fill:#C5E1A5; stroke:#444; stroke-width:1" />
                   <title>.version(pkg.version)</title>
            <text x="65" y="618.5"
                font-family="monospace" font-size="13" fill="#222">
                <tspan x="65" y="618.5">.version(pkg.version)</tspan>
            </text>
                   <circle cx="56" cy="622.5" r="4"
        style="fill:#ede7f6; stroke:#444; stroke-width:1" />
                   
                </g>
                <g>
                   <rect x="50" y="647"
            width="256.2" height="30"
            rx="2" ry="2"
            style="fill:#C5E1A5; stroke:#444; stroke-width:1" />
                   <title>.description(pkg.description)</title>
            <text x="65" y="667"
                font-family="monospace" font-size="13" fill="#222">
                <tspan x="65" y="667">.description(pkg.description)</tspan>
            </text>
                   <circle cx="56" cy="671" r="4"
        style="fill:#ede7f6; stroke:#444; stroke-width:1" />
                   
                </g>
                <g>
                   <rect x="50" y="695.5"
            width="443.4" height="30"
            rx="2" ry="2"
            style="fill:#C5E1A5; stroke:#444; stroke-width:1" />
                   <title>.option(&apos;-f, --format [format]&apos;, &apos;Specify the format of the output (text (default), json, csv)&apos;, String)</title>
            <text x="65" y="715.5"
                font-family="monospace" font-size="13" fill="#222">
                <tspan x="65" y="715.5">.option(&apos;-f, --format [format]&apos;, &apos;Specify the form...</tspan>
            </text>
                   <circle cx="56" cy="719.5" r="4"
        style="fill:#ede7f6; stroke:#444; stroke-width:1" />
                   
                </g>
                <g>
                   <rect x="50" y="744"
            width="443.4" height="30"
            rx="2" ry="2"
            style="fill:#C5E1A5; stroke:#444; stroke-width:1" />
                   <title>.option(&apos;-o, --output [path]&apos;, &apos;Output to a file instead of in the STDOUT&apos;, String)</title>
            <text x="65" y="764"
                font-family="monospace" font-size="13" fill="#222">
                <tspan x="65" y="764">.option(&apos;-o, --output [path]&apos;, &apos;Output to a file i...</tspan>
            </text>
                   <circle cx="56" cy="768" r="4"
        style="fill:#ede7f6; stroke:#444; stroke-width:1" />
                   
                </g>
                <g>
                   <rect x="50" y="792.5"
            width="443.4" height="30"
            rx="2" ry="2"
            style="fill:#C5E1A5; stroke:#444; stroke-width:1" />
                   <title>.option(&apos;-i, --interactive&apos;, &apos;Forces to read the input from the STDIN&apos;)</title>
            <text x="65" y="812.5"
                font-family="monospace" font-size="13" fill="#222">
                <tspan x="65" y="812.5">.option(&apos;-i, --interactive&apos;, &apos;Forces to read the i...</tspan>
            </text>
                   <circle cx="56" cy="816.5" r="4"
        style="fill:#ede7f6; stroke:#444; stroke-width:1" />
                   
                </g>
                <g>
                   <rect x="50" y="841"
            width="404.4" height="30"
            rx="2" ry="2"
            style="fill:#C5E1A5; stroke:#444; stroke-width:1" />
                   <title>.option(&apos;-p, --prettify&apos;, &apos;Prettify the output&apos;)</title>
            <text x="65" y="861"
                font-family="monospace" font-size="13" fill="#222">
                <tspan x="65" y="861">.option(&apos;-p, --prettify&apos;, &apos;Prettify the output&apos;)</tspan>
            </text>
                   <circle cx="56" cy="865" r="4"
        style="fill:#ede7f6; stroke:#444; stroke-width:1" />
                   
                </g>
                <g>
                   <rect x="50" y="889.5"
            width="123.6" height="30"
            rx="2" ry="2"
            style="fill:#C5E1A5; stroke:#444; stroke-width:1" />
                   <title>.action(*())</title>
            <text x="65" y="909.5"
                font-family="monospace" font-size="13" fill="#222">
                <tspan x="65" y="909.5">.action(*())</tspan>
            </text>
                   <circle cx="56" cy="913.5" r="4"
        style="fill:#ede7f6; stroke:#444; stroke-width:1" />
                   
                </g>
            <g>
                <rect x="87" y="938"
            width="128" height="30"
            style="fill:#a5d6a7; stroke:#444; stroke-width:1" />
                    
                <line x1="97" y1="938" x2="97" y2="968"
                style="fill:#a5d6a7; stroke:#444; stroke-width:1" />
                <line x1="205" y1="938" x2="205" y2="968"
                style="fill:#a5d6a7; stroke:#444; stroke-width:1" />
             
                <title>(files) =&gt;</title>
            <text x="112" y="958"
                font-family="monospace" font-size="13" fill="#222">
                <tspan x="112" y="958">(files) =&gt;</tspan>
            </text>
                
            </g>
                <g>
                   <rect x="124" y="986.5"
            width="162.6" height="30"
            rx="3" ry="3"
            style="fill:#90caf9; stroke:#444; stroke-width:1" />
                   <title>validInput = true</title>
            <text x="139" y="1006.5"
                font-family="monospace" font-size="13" fill="#222">
                <tspan x="139" y="1006.5">validInput = true</tspan>
            </text>
                   
                   
                </g><g>
            <rect x="154" y="1050"
            width="161.39999999999998" height="30"
            rx="3" ry="3"
            style="fill:#ce93d8; stroke:#444; stroke-width:1" />                
            <polygon points="124,1065 154,1035 184,1065 154,1095"
            style="fill:#ce93d8; stroke:#444; stroke-width:1" />
            <title>(prgm.format)</title>
            <text x="199" y="1070"
                font-family="monospace" font-size="13" fill="#222">
                <tspan x="199" y="1070">(prgm.format)</tspan>
            </text>
            
            <text x="146.2" y="1070"
        font-family="monospace" font-size="13" fill="#222">if</text> <text x="161.8" y="1096.95"
        font-family="monospace" font-size="13" fill="#222">+</text> 
        </g>
                <g>
                   <rect x="174" y="1105"
            width="186" height="30"
            rx="3" ry="3"
            style="fill:#90caf9; stroke:#444; stroke-width:1" />
                   <title>format = prgm.format</title>
            <text x="189" y="1125"
                font-family="monospace" font-size="13" fill="#222">
                <tspan x="189" y="1125">format = prgm.format</tspan>
            </text>
                   
                   
                </g><g>
            <rect x="154" y="1170"
            width="161.39999999999998" height="30"
            rx="3" ry="3"
            style="fill:#ce93d8; stroke:#444; stroke-width:1" />                
            <polygon points="124,1185 154,1155 184,1185 154,1215"
            style="fill:#ce93d8; stroke:#444; stroke-width:1" />
            <title>(prgm.output)</title>
            <text x="199" y="1190"
                font-family="monospace" font-size="13" fill="#222">
                <tspan x="199" y="1190">(prgm.output)</tspan>
            </text>
            
            <text x="146.2" y="1190"
        font-family="monospace" font-size="13" fill="#222">if</text> <text x="161.8" y="1216.95"
        font-family="monospace" font-size="13" fill="#222">+</text> 
        </g>
                <g>
                   <rect x="174" y="1225"
            width="186" height="30"
            rx="3" ry="3"
            style="fill:#90caf9; stroke:#444; stroke-width:1" />
                   <title>output = prgm.output</title>
            <text x="189" y="1245"
                font-family="monospace" font-size="13" fill="#222">
                <tspan x="189" y="1245">output = prgm.output</tspan>
            </text>
                   
                   
                </g><g>
            <rect x="154" y="1290"
            width="200.4" height="30"
            rx="3" ry="3"
            style="fill:#ce93d8; stroke:#444; stroke-width:1" />                
            <polygon points="124,1305 154,1275 184,1305 154,1335"
            style="fill:#ce93d8; stroke:#444; stroke-width:1" />
            <title>(prgm.interactive)</title>
            <text x="199" y="1310"
                font-family="monospace" font-size="13" fill="#222">
                <tspan x="199" y="1310">(prgm.interactive)</tspan>
            </text>
            
            <text x="146.2" y="1310"
        font-family="monospace" font-size="13" fill="#222">if</text> <text x="161.8" y="1336.95"
        font-family="monospace" font-size="13" fill="#222">+</text> 
        </g>
                <g>
                   <rect x="174" y="1345"
            width="147" height="30"
            rx="3" ry="3"
            style="fill:#90caf9; stroke:#444; stroke-width:1" />
                   <title>input = &apos;stdin&apos;</title>
            <text x="189" y="1365"
                font-family="monospace" font-size="13" fill="#222">
                <tspan x="189" y="1365">input = &apos;stdin&apos;</tspan>
            </text>
                   
                   
                </g>
                <g>
                   <rect x="124" y="1395"
            width="443.4" height="30"
            rx="2" ry="2"
            style="fill:#C5E1A5; stroke:#444; stroke-width:1" />
                   <title>hmj.run(format, input, output, files, !!prgm.prettify)</title>
            <text x="139" y="1415"
                font-family="monospace" font-size="13" fill="#222">
                <tspan x="139" y="1415">hmj.run(format, input, output, files, !!prgm.prett...</tspan>
            </text>
                   
                   
                </g>
                <g>
                   <rect x="50" y="1443.5"
            width="186" height="30"
            rx="2" ry="2"
            style="fill:#C5E1A5; stroke:#444; stroke-width:1" />
                   <title>.parse(process.argv)</title>
            <text x="65" y="1463.5"
                font-family="monospace" font-size="13" fill="#222">
                <tspan x="65" y="1463.5">.parse(process.argv)</tspan>
            </text>
                   <circle cx="56" cy="1467.5" r="4"
        style="fill:#ede7f6; stroke:#444; stroke-width:1" />
                   
                </g><g>
            <rect x="80" y="1507"
            width="161.39999999999998" height="30"
            rx="3" ry="3"
            style="fill:#ce93d8; stroke:#444; stroke-width:1" />                
            <polygon points="50,1522 80,1492 110,1522 80,1552"
            style="fill:#ce93d8; stroke:#444; stroke-width:1" />
            <title>(!validInput)</title>
            <text x="125" y="1527"
                font-family="monospace" font-size="13" fill="#222">
                <tspan x="125" y="1527">(!validInput)</tspan>
            </text>
            
            <text x="72.2" y="1527"
        font-family="monospace" font-size="13" fill="#222">if</text> <text x="87.8" y="1553.95"
        font-family="monospace" font-size="13" fill="#222">+</text> 
        </g>
                <g>
                   <rect x="100" y="1562"
            width="264" height="30"
            rx="3" ry="3"
            style="fill:#90caf9; stroke:#444; stroke-width:1" />
                   <title>let argc = process.argv.length</title>
            <text x="115" y="1582"
                font-family="monospace" font-size="13" fill="#222">
                <tspan x="115" y="1582">let argc = process.argv.length</tspan>
            </text>
                   
                   
                </g><g>

            <rect x="130" y="1645.5"
            width="122.4" height="30"
            rx="3" ry="3"
            style="fill:#b39ddb; stroke:#444; stroke-width:1" />
            <polygon points="100,1660.5 130,1630.5 160,1660.5 130,1690.5"
            style="fill:#b39ddb; stroke:#444; stroke-width:1" />
                
            <title>i &lt; argc</title>
            <text x="175" y="1665.5"
                font-family="monospace" font-size="13" fill="#222">
                <tspan x="175" y="1665.5">i &lt; argc</tspan>
            </text>
            
            <text x="118.3" y="1665.5"
        font-family="monospace" font-size="13" fill="#222">for</text>
        </g>
                <g>
                   <rect x="150" y="1700.5"
            width="53.4" height="30"
            rx="3" ry="3"
            style="fill:#90caf9; stroke:#444; stroke-width:1" />
                   <title>++i</title>
            <text x="165" y="1720.5"
                font-family="monospace" font-size="13" fill="#222">
                <tspan x="165" y="1720.5">++i</tspan>
            </text>
                   
                   
                </g><g>
            <rect x="180" y="1764"
            width="247.2" height="30"
            rx="3" ry="3"
            style="fill:#ce93d8; stroke:#444; stroke-width:1" />                
            <polygon points="150,1779 180,1749 210,1779 180,1809"
            style="fill:#ce93d8; stroke:#444; stroke-width:1" />
            <title>switch (process.argv[i])</title>
            <text x="225" y="1784"
                font-family="monospace" font-size="13" fill="#222">
                <tspan x="225" y="1784">switch (process.argv[i])</tspan>
            </text>
            
            <text x="172.2" y="1784"
        font-family="monospace" font-size="13" fill="#222">if</text> <text x="187.8" y="1810.95"
        font-family="monospace" font-size="13" fill="#222">+</text> 
        </g>
                <g>
                   <rect x="200" y="1819"
            width="108" height="30"
            rx="2" ry="2"
            style="fill:#ce93d8; stroke:#444; stroke-width:1" />
                   <title>case &apos;-f&apos;:</title>
            <text x="215" y="1839"
                font-family="monospace" font-size="13" fill="#222">
                <tspan x="215" y="1839">case &apos;-f&apos;:</tspan>
            </text>
                   
                   
                </g>
                <g>
                   <rect x="200" y="1867.5"
            width="154.8" height="30"
            rx="2" ry="2"
            style="fill:#ce93d8; stroke:#444; stroke-width:1" />
                   <title>case &apos;--format&apos;:</title>
            <text x="215" y="1887.5"
                font-family="monospace" font-size="13" fill="#222">
                <tspan x="215" y="1887.5">case &apos;--format&apos;:</tspan>
            </text>
                   
                   
                </g>
                <g>
                   <rect x="237" y="1916"
            width="232.79999999999998" height="30"
            rx="3" ry="3"
            style="fill:#90caf9; stroke:#444; stroke-width:1" />
                   <title>format = process.argv[++i]</title>
            <text x="252" y="1936"
                font-family="monospace" font-size="13" fill="#222">
                <tspan x="252" y="1936">format = process.argv[++i]</tspan>
            </text>
                   
                   
                </g>
                <g>
                   <rect x="274" y="1964.5"
            width="53.4" height="30"
            rx="3" ry="3"
            style="fill:#90caf9; stroke:#444; stroke-width:1" />
                   <title>++i</title>
            <text x="289" y="1984.5"
                font-family="monospace" font-size="13" fill="#222">
                <tspan x="289" y="1984.5">++i</tspan>
            </text>
                   
                   
                </g>
            <g>
                <rect x="237" y="2013"
            width="69" height="30"
            rx="2" ry="2"
            style="fill:#90caf9; stroke:#444; stroke-width:1" />
                
                <line x1="306" y1="2023" x2="311" y2="2023"
                style="fill:#ce93d8; stroke:#444; stroke-width:1" />
                
                <line x1="306" y1="2033" x2="311" y2="2033"
                style="fill:#ce93d8; stroke:#444; stroke-width:1" />

                <path d="M311, 2014 L327, 2028 L311, 2042 Z" 
        fill="#ce93d8" stroke="#444" stroke-width="1" />
                             
                <title>break</title>
            <text x="252" y="2033"
                font-family="monospace" font-size="13" fill="#222">
                <tspan x="252" y="2033">break</tspan>
            </text>
                
            </g>
                <g>
                   <rect x="200" y="2061.5"
            width="108" height="30"
            rx="2" ry="2"
            style="fill:#ce93d8; stroke:#444; stroke-width:1" />
                   <title>case &apos;-i&apos;:</title>
            <text x="215" y="2081.5"
                font-family="monospace" font-size="13" fill="#222">
                <tspan x="215" y="2081.5">case &apos;-i&apos;:</tspan>
            </text>
                   
                   
                </g>
                <g>
                   <rect x="200" y="2110"
            width="193.79999999999998" height="30"
            rx="2" ry="2"
            style="fill:#ce93d8; stroke:#444; stroke-width:1" />
                   <title>case &apos;--interactive&apos;:</title>
            <text x="215" y="2130"
                font-family="monospace" font-size="13" fill="#222">
                <tspan x="215" y="2130">case &apos;--interactive&apos;:</tspan>
            </text>
                   
                   
                </g>
                <g>
                   <rect x="237" y="2158.5"
            width="147" height="30"
            rx="3" ry="3"
            style="fill:#90caf9; stroke:#444; stroke-width:1" />
                   <title>input = &apos;stdin&apos;</title>
            <text x="252" y="2178.5"
                font-family="monospace" font-size="13" fill="#222">
                <tspan x="252" y="2178.5">input = &apos;stdin&apos;</tspan>
            </text>
                   
                   
                </g>
            <g>
                <rect x="237" y="2207"
            width="69" height="30"
            rx="2" ry="2"
            style="fill:#90caf9; stroke:#444; stroke-width:1" />
                
                <line x1="306" y1="2217" x2="311" y2="2217"
                style="fill:#ce93d8; stroke:#444; stroke-width:1" />
                
                <line x1="306" y1="2227" x2="311" y2="2227"
                style="fill:#ce93d8; stroke:#444; stroke-width:1" />

                <path d="M311, 2208 L327, 2222 L311, 2236 Z" 
        fill="#ce93d8" stroke="#444" stroke-width="1" />
                             
                <title>break</title>
            <text x="252" y="2227"
                font-family="monospace" font-size="13" fill="#222">
                <tspan x="252" y="2227">break</tspan>
            </text>
                
            </g>
                <g>
                   <rect x="200" y="2255.5"
            width="108" height="30"
            rx="2" ry="2"
            style="fill:#ce93d8; stroke:#444; stroke-width:1" />
                   <title>case &apos;-o&apos;:</title>
            <text x="215" y="2275.5"
                font-family="monospace" font-size="13" fill="#222">
                <tspan x="215" y="2275.5">case &apos;-o&apos;:</tspan>
            </text>
                   
                   
                </g>
                <g>
                   <rect x="200" y="2304"
            width="154.8" height="30"
            rx="2" ry="2"
            style="fill:#ce93d8; stroke:#444; stroke-width:1" />
                   <title>case &apos;--output&apos;:</title>
            <text x="215" y="2324"
                font-family="monospace" font-size="13" fill="#222">
                <tspan x="215" y="2324">case &apos;--output&apos;:</tspan>
            </text>
                   
                   
                </g>
                <g>
                   <rect x="237" y="2352.5"
            width="232.79999999999998" height="30"
            rx="3" ry="3"
            style="fill:#90caf9; stroke:#444; stroke-width:1" />
                   <title>output = process.argv[++i]</title>
            <text x="252" y="2372.5"
                font-family="monospace" font-size="13" fill="#222">
                <tspan x="252" y="2372.5">output = process.argv[++i]</tspan>
            </text>
                   
                   
                </g>
                <g>
                   <rect x="274" y="2401"
            width="53.4" height="30"
            rx="3" ry="3"
            style="fill:#90caf9; stroke:#444; stroke-width:1" />
                   <title>++i</title>
            <text x="289" y="2421"
                font-family="monospace" font-size="13" fill="#222">
                <tspan x="289" y="2421">++i</tspan>
            </text>
                   
                   
                </g>
            <g>
                <rect x="237" y="2449.5"
            width="69" height="30"
            rx="2" ry="2"
            style="fill:#90caf9; stroke:#444; stroke-width:1" />
                
                <line x1="306" y1="2459.5" x2="311" y2="2459.5"
                style="fill:#ce93d8; stroke:#444; stroke-width:1" />
                
                <line x1="306" y1="2469.5" x2="311" y2="2469.5"
                style="fill:#ce93d8; stroke:#444; stroke-width:1" />

                <path d="M311, 2450.5 L327, 2464.5 L311, 2478.5 Z" 
        fill="#ce93d8" stroke="#444" stroke-width="1" />
                             
                <title>break</title>
            <text x="252" y="2469.5"
                font-family="monospace" font-size="13" fill="#222">
                <tspan x="252" y="2469.5">break</tspan>
            </text>
                
            </g>
                <g>
                   <rect x="200" y="2498"
            width="108" height="30"
            rx="2" ry="2"
            style="fill:#ce93d8; stroke:#444; stroke-width:1" />
                   <title>case &apos;-p&apos;:</title>
            <text x="215" y="2518"
                font-family="monospace" font-size="13" fill="#222">
                <tspan x="215" y="2518">case &apos;-p&apos;:</tspan>
            </text>
                   
                   
                </g>
                <g>
                   <rect x="200" y="2546.5"
            width="170.4" height="30"
            rx="2" ry="2"
            style="fill:#ce93d8; stroke:#444; stroke-width:1" />
                   <title>case &apos;--prettify&apos;:</title>
            <text x="215" y="2566.5"
                font-family="monospace" font-size="13" fill="#222">
                <tspan x="215" y="2566.5">case &apos;--prettify&apos;:</tspan>
            </text>
                   
                   
                </g>
                <g>
                   <rect x="237" y="2595"
            width="170.4" height="30"
            rx="2" ry="2"
            style="fill:#C5E1A5; stroke:#444; stroke-width:1" />
                   <title>console.log(&apos;Yes&apos;)</title>
            <text x="252" y="2615"
                font-family="monospace" font-size="13" fill="#222">
                <tspan x="252" y="2615">console.log(&apos;Yes&apos;)</tspan>
            </text>
                   
                   
                </g>
                <g>
                   <rect x="237" y="2643.5"
            width="147" height="30"
            rx="3" ry="3"
            style="fill:#90caf9; stroke:#444; stroke-width:1" />
                   <title>prettify = true</title>
            <text x="252" y="2663.5"
                font-family="monospace" font-size="13" fill="#222">
                <tspan x="252" y="2663.5">prettify = true</tspan>
            </text>
                   
                   
                </g>
            <g>
                <rect x="237" y="2692"
            width="69" height="30"
            rx="2" ry="2"
            style="fill:#90caf9; stroke:#444; stroke-width:1" />
                
                <line x1="306" y1="2702" x2="311" y2="2702"
                style="fill:#ce93d8; stroke:#444; stroke-width:1" />
                
                <line x1="306" y1="2712" x2="311" y2="2712"
                style="fill:#ce93d8; stroke:#444; stroke-width:1" />

                <path d="M311, 2693 L327, 2707 L311, 2721 Z" 
        fill="#ce93d8" stroke="#444" stroke-width="1" />
                             
                <title>break</title>
            <text x="252" y="2712"
                font-family="monospace" font-size="13" fill="#222">
                <tspan x="252" y="2712">break</tspan>
            </text>
                
            </g>
                <g>
                   <rect x="100" y="2740.5"
            width="342" height="30"
            rx="2" ry="2"
            style="fill:#C5E1A5; stroke:#444; stroke-width:1" />
                   <title>hmj.run(format, input, output, prettify)</title>
            <text x="115" y="2760.5"
                font-family="monospace" font-size="13" fill="#222">
                <tspan x="115" y="2760.5">hmj.run(format, input, output, prettify)</tspan>
            </text>
                   
                   
                </g>
            <g>
               <rect x="25" y="13.75"
            width="216.6" height="24"
            style="fill:#fff59d; stroke:#444; stroke-width:1" />
               <circle cx="25" cy="25" r="15"
        style="fill:#fff59d; stroke:#444; stroke-width:1" />
               <title>Program: source module</title>
            <text x="55" y="30"
                font-family="monospace" font-size="13" fill="#222">
                <tspan x="55" y="30">Program: source module</tspan>
            </text>
            </g>
            <g>
               <path d="M25, 40 L25 76 Q25 80
                29 80
                L42 80 "
        style="fill:none; stroke:#444; stroke-width:1" />
               <path d="M42, 77 L50, 80 L42, 83 Z" 
        fill="#333" />
            </g>
            <g>
               <path d="M25, 40 L25 124.5 Q25 128.5
                29 128.5
                L42 128.5 "
        style="fill:none; stroke:#444; stroke-width:1" />
               <path d="M42, 125.5 L50, 128.5 L42, 131.5 Z" 
        fill="#333" />
            </g>
            <g>
               <path d="M25, 40 L25 173 Q25 177
                29 177
                L42 177 "
        style="fill:none; stroke:#444; stroke-width:1" />
               <path d="M42, 174 L50, 177 L42, 180 Z" 
        fill="#333" />
            </g>
            <g>
               <path d="M25, 40 L25 221.5 Q25 225.5
                29 225.5
                L42 225.5 "
        style="fill:none; stroke:#444; stroke-width:1" />
               <path d="M42, 222.5 L50, 225.5 L42, 228.5 Z" 
        fill="#333" />
            </g>
            <g>
               <path d="M25, 40 L25 270 Q25 274
                29 274
                L42 274 "
        style="fill:none; stroke:#444; stroke-width:1" />
               <path d="M42, 271 L50, 274 L42, 277 Z" 
        fill="#333" />
            </g>
            <g>
               <path d="M25, 40 L25 318.5 Q25 322.5
                29 322.5
                L42 322.5 "
        style="fill:none; stroke:#444; stroke-width:1" />
               <path d="M42, 319.5 L50, 322.5 L42, 325.5 Z" 
        fill="#333" />
            </g>
            <g>
               <path d="M25, 40 L25 367 Q25 371
                29 371
                L42 371 "
        style="fill:none; stroke:#444; stroke-width:1" />
               <path d="M42, 368 L50, 371 L42, 374 Z" 
        fill="#333" />
            </g>
            <g>
               <path d="M25, 40 L25 415.5 Q25 419.5
                29 419.5
                L42 419.5 "
        style="fill:none; stroke:#444; stroke-width:1" />
               <path d="M42, 416.5 L50, 419.5 L42, 422.5 Z" 
        fill="#333" />
            </g>
            <g>
               <path d="M25, 40 L25 464 Q25 468
                29 468
                L42 468 "
        style="fill:none; stroke:#444; stroke-width:1" />
               <path d="M42, 465 L50, 468 L42, 471 Z" 
        fill="#333" />
            </g>
            <g>
               <path d="M25, 40 L25 512.5 Q25 516.5
                29 516.5
                L42 516.5 "
        style="fill:none; stroke:#444; stroke-width:1" />
               <path d="M42, 513.5 L50, 516.5 L42, 519.5 Z" 
        fill="#333" />
            </g>
            <g>
               <path d="M25, 40 L25 561 Q25 565
                29 565
                L42 565 "
        style="fill:none; stroke:#444; stroke-width:1" />
               <path d="M42, 562 L50, 565 L42, 568 Z" 
        fill="#333" />
            </g>
            <g>
               <path d="M25, 40 L25 609.5 Q25 613.5
                29 613.5
                L42 613.5 "
        style="fill:none; stroke:#444; stroke-width:1" />
               <path d="M42, 610.5 L50, 613.5 L42, 616.5 Z" 
        fill="#333" />
            </g>
            <g>
               <path d="M25, 40 L25 658 Q25 662
                29 662
                L42 662 "
        style="fill:none; stroke:#444; stroke-width:1" />
               <path d="M42, 659 L50, 662 L42, 665 Z" 
        fill="#333" />
            </g>
            <g>
               <path d="M25, 40 L25 706.5 Q25 710.5
                29 710.5
                L42 710.5 "
        style="fill:none; stroke:#444; stroke-width:1" />
               <path d="M42, 707.5 L50, 710.5 L42, 713.5 Z" 
        fill="#333" />
            </g>
            <g>
               <path d="M25, 40 L25 755 Q25 759
                29 759
                L42 759 "
        style="fill:none; stroke:#444; stroke-width:1" />
               <path d="M42, 756 L50, 759 L42, 762 Z" 
        fill="#333" />
            </g>
            <g>
               <path d="M25, 40 L25 803.5 Q25 807.5
                29 807.5
                L42 807.5 "
        style="fill:none; stroke:#444; stroke-width:1" />
               <path d="M42, 804.5 L50, 807.5 L42, 810.5 Z" 
        fill="#333" />
            </g>
            <g>
               <path d="M25, 40 L25 852 Q25 856
                29 856
                L42 856 "
        style="fill:none; stroke:#444; stroke-width:1" />
               <path d="M42, 853 L50, 856 L42, 859 Z" 
        fill="#333" />
            </g>
            <g>
               <path d="M25, 40 L25 900.5 Q25 904.5
                29 904.5
                L42 904.5 "
        style="fill:none; stroke:#444; stroke-width:1" />
               <path d="M42, 901.5 L50, 904.5 L42, 907.5 Z" 
        fill="#333" />
            </g>
            <g>
               <path d="M68.5, 919.5 L68.5 949 Q68.5 953
                72.5 953
                L87 953 "
        style="fill:none; stroke:#444; stroke-width:1" />
               false
            </g>
            <g>
               <path d="M105.5, 968 L105.5 997.5 Q105.5 1001.5
                109.5 1001.5
                L116 1001.5 "
        style="fill:none; stroke:#444; stroke-width:1" />
               <path d="M116, 998.5 L124, 1001.5 L116, 1004.5 Z" 
        fill="#333" />
            </g>
            <g>
               <path d="M105.5, 968 L105.5 1061 Q105.5 1065
                109.5 1065
                L116 1065 "
        style="fill:none; stroke:#444; stroke-width:1" />
               <path d="M116, 1062 L124, 1065 L116, 1068 Z" 
        fill="#333" />
            </g>
            <g>
               <path d="M154, 1095 L154 1116 Q154 1120
                158 1120
                L166 1120 "
        style="fill:none; stroke:#444; stroke-width:1" />
               <path d="M166, 1117 L174, 1120 L166, 1123 Z" 
        fill="#333" />
            </g>
            <g>
               <path d="M105.5, 968 L105.5 1181 Q105.5 1185
                109.5 1185
                L116 1185 "
        style="fill:none; stroke:#444; stroke-width:1" />
               <path d="M116, 1182 L124, 1185 L116, 1188 Z" 
        fill="#333" />
            </g>
            <g>
               <path d="M154, 1215 L154 1236 Q154 1240
                158 1240
                L166 1240 "
        style="fill:none; stroke:#444; stroke-width:1" />
               <path d="M166, 1237 L174, 1240 L166, 1243 Z" 
        fill="#333" />
            </g>
            <g>
               <path d="M105.5, 968 L105.5 1301 Q105.5 1305
                109.5 1305
                L116 1305 "
        style="fill:none; stroke:#444; stroke-width:1" />
               <path d="M116, 1302 L124, 1305 L116, 1308 Z" 
        fill="#333" />
            </g>
            <g>
               <path d="M154, 1335 L154 1356 Q154 1360
                158 1360
                L166 1360 "
        style="fill:none; stroke:#444; stroke-width:1" />
               <path d="M166, 1357 L174, 1360 L166, 1363 Z" 
        fill="#333" />
            </g>
            <g>
               <path d="M105.5, 968 L105.5 1406 Q105.5 1410
                109.5 1410
                L116 1410 "
        style="fill:none; stroke:#444; stroke-width:1" />
               <path d="M116, 1407 L124, 1410 L116, 1413 Z" 
        fill="#333" />
            </g>
            <g>
               <path d="M25, 40 L25 1454.5 Q25 1458.5
                29 1458.5
                L42 1458.5 "
        style="fill:none; stroke:#444; stroke-width:1" />
               <path d="M42, 1455.5 L50, 1458.5 L42, 1461.5 Z" 
        fill="#333" />
            </g>
            <g>
               <path d="M25, 40 L25 1518 Q25 1522
                29 1522
                L42 1522 "
        style="fill:none; stroke:#444; stroke-width:1" />
               <path d="M42, 1519 L50, 1522 L42, 1525 Z" 
        fill="#333" />
            </g>
            <g>
               <path d="M80, 1552 L80 1573 Q80 1577
                84 1577
                L92 1577 "
        style="fill:none; stroke:#444; stroke-width:1" />
               <path d="M92, 1574 L100, 1577 L92, 1580 Z" 
        fill="#333" />
            </g>
            <g>
               <path d="M80, 1552 L80 1656.5 Q80 1660.5
                84 1660.5
                L92 1660.5 "
        style="fill:none; stroke:#444; stroke-width:1" />
               <path d="M92, 1657.5 L100, 1660.5 L92, 1663.5 Z" 
        fill="#333" />
            </g>
            <g>
               <path d="M130, 1690.5 L130 1711.5 Q130 1715.5
                134 1715.5
                L142 1715.5 "
        style="fill:none; stroke:#444; stroke-width:1" />
               <path d="M142, 1712.5 L150, 1715.5 L142, 1718.5 Z" 
        fill="#333" />
            </g>
            <g>
               <path d="M130, 1690.5 L130 1775 Q130 1779
                134 1779
                L142 1779 "
        style="fill:none; stroke:#444; stroke-width:1" />
               <path d="M142, 1776 L150, 1779 L142, 1782 Z" 
        fill="#333" />
            </g>
            <g>
               <path d="M180, 1809 L180 1830 Q180 1834
                184 1834
                L192 1834 "
        style="fill:none; stroke:#444; stroke-width:1" />
               <path d="M192, 1831 L200, 1834 L192, 1837 Z" 
        fill="#333" />
            </g>
            <g>
               <path d="M180, 1809 L180 1878.5 Q180 1882.5
                184 1882.5
                L192 1882.5 "
        style="fill:none; stroke:#444; stroke-width:1" />
               <path d="M192, 1879.5 L200, 1882.5 L192, 1885.5 Z" 
        fill="#333" />
            </g>
            <g>
               <path d="M218.5, 1897.5 L218.5 1927 Q218.5 1931
                222.5 1931
                L229 1931 "
        style="fill:none; stroke:#444; stroke-width:1" />
               <path d="M229, 1928 L237, 1931 L229, 1934 Z" 
        fill="#333" />
            </g>
            <g>
               <path d="M255.5, 1946 L255.5 1975.5 Q255.5 1979.5
                259.5 1979.5
                L266 1979.5 "
        style="fill:none; stroke:#444; stroke-width:1" />
               <path d="M266, 1976.5 L274, 1979.5 L266, 1982.5 Z" 
        fill="#333" />
            </g>
            <g>
               <path d="M218.5, 1897.5 L218.5 2024 Q218.5 2028
                222.5 2028
                L229 2028 "
        style="fill:none; stroke:#444; stroke-width:1" />
               <path d="M229, 2025 L237, 2028 L229, 2031 Z" 
        fill="#333" />
            </g>
            <g>
               <path d="M180, 1809 L180 2072.5 Q180 2076.5
                184 2076.5
                L192 2076.5 "
        style="fill:none; stroke:#444; stroke-width:1" />
               <path d="M192, 2073.5 L200, 2076.5 L192, 2079.5 Z" 
        fill="#333" />
            </g>
            <g>
               <path d="M180, 1809 L180 2121 Q180 2125
                184 2125
                L192 2125 "
        style="fill:none; stroke:#444; stroke-width:1" />
               <path d="M192, 2122 L200, 2125 L192, 2128 Z" 
        fill="#333" />
            </g>
            <g>
               <path d="M218.5, 2140 L218.5 2169.5 Q218.5 2173.5
                222.5 2173.5
                L229 2173.5 "
        style="fill:none; stroke:#444; stroke-width:1" />
               <path d="M229, 2170.5 L237, 2173.5 L229, 2176.5 Z" 
        fill="#333" />
            </g>
            <g>
               <path d="M218.5, 2140 L218.5 2218 Q218.5 2222
                222.5 2222
                L229 2222 "
        style="fill:none; stroke:#444; stroke-width:1" />
               <path d="M229, 2219 L237, 2222 L229, 2225 Z" 
        fill="#333" />
            </g>
            <g>
               <path d="M180, 1809 L180 2266.5 Q180 2270.5
                184 2270.5
                L192 2270.5 "
        style="fill:none; stroke:#444; stroke-width:1" />
               <path d="M192, 2267.5 L200, 2270.5 L192, 2273.5 Z" 
        fill="#333" />
            </g>
            <g>
               <path d="M180, 1809 L180 2315 Q180 2319
                184 2319
                L192 2319 "
        style="fill:none; stroke:#444; stroke-width:1" />
               <path d="M192, 2316 L200, 2319 L192, 2322 Z" 
        fill="#333" />
            </g>
            <g>
               <path d="M218.5, 2334 L218.5 2363.5 Q218.5 2367.5
                222.5 2367.5
                L229 2367.5 "
        style="fill:none; stroke:#444; stroke-width:1" />
               <path d="M229, 2364.5 L237, 2367.5 L229, 2370.5 Z" 
        fill="#333" />
            </g>
            <g>
               <path d="M255.5, 2382.5 L255.5 2412 Q255.5 2416
                259.5 2416
                L266 2416 "
        style="fill:none; stroke:#444; stroke-width:1" />
               <path d="M266, 2413 L274, 2416 L266, 2419 Z" 
        fill="#333" />
            </g>
            <g>
               <path d="M218.5, 2334 L218.5 2460.5 Q218.5 2464.5
                222.5 2464.5
                L229 2464.5 "
        style="fill:none; stroke:#444; stroke-width:1" />
               <path d="M229, 2461.5 L237, 2464.5 L229, 2467.5 Z" 
        fill="#333" />
            </g>
            <g>
               <path d="M180, 1809 L180 2509 Q180 2513
                184 2513
                L192 2513 "
        style="fill:none; stroke:#444; stroke-width:1" />
               <path d="M192, 2510 L200, 2513 L192, 2516 Z" 
        fill="#333" />
            </g>
            <g>
               <path d="M180, 1809 L180 2557.5 Q180 2561.5
                184 2561.5
                L192 2561.5 "
        style="fill:none; stroke:#444; stroke-width:1" />
               <path d="M192, 2558.5 L200, 2561.5 L192, 2564.5 Z" 
        fill="#333" />
            </g>
            <g>
               <path d="M218.5, 2576.5 L218.5 2606 Q218.5 2610
                222.5 2610
                L229 2610 "
        style="fill:none; stroke:#444; stroke-width:1" />
               <path d="M229, 2607 L237, 2610 L229, 2613 Z" 
        fill="#333" />
            </g>
            <g>
               <path d="M218.5, 2576.5 L218.5 2654.5 Q218.5 2658.5
                222.5 2658.5
                L229 2658.5 "
        style="fill:none; stroke:#444; stroke-width:1" />
               <path d="M229, 2655.5 L237, 2658.5 L229, 2661.5 Z" 
        fill="#333" />
            </g>
            <g>
               <path d="M218.5, 2576.5 L218.5 2703 Q218.5 2707
                222.5 2707
                L229 2707 "
        style="fill:none; stroke:#444; stroke-width:1" />
               <path d="M229, 2704 L237, 2707 L229, 2710 Z" 
        fill="#333" />
            </g>
            <g>
               <path d="M327, 2707 L485.79999999999995 2707  Q489.79999999999995 2707
                489.79999999999995 2703
                L489.79999999999995 1618.5 Q489.79999999999995 1610.5
                485.79999999999995 1610.5
                L138 1610.5  Q130 1610.5
                130 1614.5
                L130 1622.5"
        style="fill:none; stroke:#444; stroke-width:1" />
               <path d="M127, 1622.5 L130, 1630.5 L133, 1622.5 Z" 
        fill="#333" />
            </g>
            <g>
               <path d="M80, 1552 L80 2751.5 Q80 2755.5
                84 2755.5
                L92 2755.5 "
        style="fill:none; stroke:#444; stroke-width:1" />
               <path d="M92, 2752.5 L100, 2755.5 L92, 2758.5 Z" 
        fill="#333" />
            </g>
            </svg>