<!DOCTYPE svg PUBLIC "-//W3C//DTD SVG 1.1//EN" "http://www.w3.org/Graphics/SVG/1.1/DTD/svg11.dtd">
                <svg xmlns="http://www.w3.org/2000/svg" xmlns:xlink="http://www.w3.org/1999/xlink" 
                width="593" height="1065">
                
                <g>
                   <rect x="50" y="65"
            width="342" height="30"
            rx="3" ry="3"
            style="fill:#90caf9; stroke:#444; stroke-width:1" />
                   <title>const hmj = require(&apos;./src/hashmyjs.js&apos;)</title>
            <text x="65" y="85"
                font-family="monospace" font-size="13" fill="#222">
                <tspan x="65" y="85">const hmj = require(&apos;./src/hashmyjs.js&apos;)</tspan>
            </text>
                   
                   
                </g>
                <g>
                   <rect x="50" y="113.5"
            width="287.4" height="30"
            rx="3" ry="3"
            style="fill:#90caf9; stroke:#444; stroke-width:1" />
                   <title>const prgm = require(&apos;commander&apos;)</title>
            <text x="65" y="133.5"
                font-family="monospace" font-size="13" fill="#222">
                <tspan x="65" y="133.5">const prgm = require(&apos;commander&apos;)</tspan>
            </text>
                   
                   
                </g>
                <g>
                   <rect x="50" y="162"
            width="256.2" height="30"
            rx="3" ry="3"
            style="fill:#90caf9; stroke:#444; stroke-width:1" />
                   <title>const clr = require(&apos;colors&apos;)</title>
            <text x="65" y="182"
                font-family="monospace" font-size="13" fill="#222">
                <tspan x="65" y="182">const clr = require(&apos;colors&apos;)</tspan>
            </text>
                   
                   
                </g>
                <g>
                   <rect x="50" y="210.5"
            width="318.59999999999997" height="30"
            rx="3" ry="3"
            style="fill:#90caf9; stroke:#444; stroke-width:1" />
                   <title>const pkg = require(&apos;./package.json&apos;)</title>
            <text x="65" y="230.5"
                font-family="monospace" font-size="13" fill="#222">
                <tspan x="65" y="230.5">const pkg = require(&apos;./package.json&apos;)</tspan>
            </text>
                   
                   
                </g>
                <g>
                   <rect x="50" y="259"
            width="295.2" height="30"
            rx="2" ry="2"
            style="fill:#C5E1A5; stroke:#444; stroke-width:1" />
                   <title>clr.setTheme(require(&apos;./src/clr&apos;))</title>
            <text x="65" y="279"
                font-family="monospace" font-size="13" fill="#222">
                <tspan x="65" y="279">clr.setTheme(require(&apos;./src/clr&apos;))</tspan>
            </text>
                   
                   
                </g>
                <g>
                   <rect x="50" y="307.5"
            width="248.4" height="30"
            rx="2" ry="2"
            style="fill:#C5E1A5; stroke:#444; stroke-width:1" />
                   <title>prgm.arguments(&apos;[files...]&apos;)</title>
            <text x="65" y="327.5"
                font-family="monospace" font-size="13" fill="#222">
                <tspan x="65" y="327.5">prgm.arguments(&apos;[files...]&apos;)</tspan>
            </text>
                   
                   
                </g>
                <g>
                   <rect x="50" y="356"
            width="193.79999999999998" height="30"
            rx="2" ry="2"
            style="fill:#C5E1A5; stroke:#444; stroke-width:1" />
                   <title>.version(pkg.version)</title>
            <text x="65" y="376"
                font-family="monospace" font-size="13" fill="#222">
                <tspan x="65" y="376">.version(pkg.version)</tspan>
            </text>
                   <circle cx="56" cy="380" r="4"
        style="fill:#ede7f6; stroke:#444; stroke-width:1" />
                   
                </g>
                <g>
                   <rect x="50" y="404.5"
            width="256.2" height="30"
            rx="2" ry="2"
            style="fill:#C5E1A5; stroke:#444; stroke-width:1" />
                   <title>.description(pkg.description)</title>
            <text x="65" y="424.5"
                font-family="monospace" font-size="13" fill="#222">
                <tspan x="65" y="424.5">.description(pkg.description)</tspan>
            </text>
                   <circle cx="56" cy="428.5" r="4"
        style="fill:#ede7f6; stroke:#444; stroke-width:1" />
                   
                </g>
                <g>
                   <rect x="50" y="453"
            width="443.4" height="30"
            rx="2" ry="2"
            style="fill:#C5E1A5; stroke:#444; stroke-width:1" />
                   <title>.option(&apos;-f, --format [format]&apos;, &apos;Specify the format of the output (text (default), json, csv)&apos;, String)</title>
            <text x="65" y="473"
                font-family="monospace" font-size="13" fill="#222">
                <tspan x="65" y="473">.option(&apos;-f, --format [format]&apos;, &apos;Specify the form...</tspan>
            </text>
                   <circle cx="56" cy="477" r="4"
        style="fill:#ede7f6; stroke:#444; stroke-width:1" />
                   
                </g>
                <g>
                   <rect x="50" y="501.5"
            width="443.4" height="30"
            rx="2" ry="2"
            style="fill:#C5E1A5; stroke:#444; stroke-width:1" />
                   <title>.option(&apos;-o, --output [path]&apos;, &apos;Output to a file instead of in the STDOUT&apos;, String)</title>
            <text x="65" y="521.5"
                font-family="monospace" font-size="13" fill="#222">
                <tspan x="65" y="521.5">.option(&apos;-o, --output [path]&apos;, &apos;Output to a file i...</tspan>
            </text>
                   <circle cx="56" cy="525.5" r="4"
        style="fill:#ede7f6; stroke:#444; stroke-width:1" />
                   
                </g>
                <g>
                   <rect x="50" y="550"
            width="443.4" height="30"
            rx="2" ry="2"
            style="fill:#C5E1A5; stroke:#444; stroke-width:1" />
                   <title>.option(&apos;-i, --interactive&apos;, &apos;Forces to read the input from the STDIN&apos;)</title>
            <text x="65" y="570"
                font-family="monospace" font-size="13" fill="#222">
                <tspan x="65" y="570">.option(&apos;-i, --interactive&apos;, &apos;Forces to read the i...</tspan>
            </text>
                   <circle cx="56" cy="574" r="4"
        style="fill:#ede7f6; stroke:#444; stroke-width:1" />
                   
                </g>
                <g>
                   <rect x="50" y="598.5"
            width="404.4" height="30"
            rx="2" ry="2"
            style="fill:#C5E1A5; stroke:#444; stroke-width:1" />
                   <title>.option(&apos;-p, --prettify&apos;, &apos;Prettify the output&apos;)</title>
            <text x="65" y="618.5"
                font-family="monospace" font-size="13" fill="#222">
                <tspan x="65" y="618.5">.option(&apos;-p, --prettify&apos;, &apos;Prettify the output&apos;)</tspan>
            </text>
                   <circle cx="56" cy="622.5" r="4"
        style="fill:#ede7f6; stroke:#444; stroke-width:1" />
                   
                </g>
                <g>
                   <rect x="50" y="647"
            width="123.6" height="30"
            rx="2" ry="2"
            style="fill:#C5E1A5; stroke:#444; stroke-width:1" />
                   <title>.action(*())</title>
            <text x="65" y="667"
                font-family="monospace" font-size="13" fill="#222">
                <tspan x="65" y="667">.action(*())</tspan>
            </text>
                   <circle cx="56" cy="671" r="4"
        style="fill:#ede7f6; stroke:#444; stroke-width:1" />
                   
                </g>
            <g>
                <rect x="87" y="695.5"
            width="128" height="30"
            style="fill:#a5d6a7; stroke:#444; stroke-width:1" />
                    
                <line x1="97" y1="695.5" x2="97" y2="725.5"
                style="fill:#a5d6a7; stroke:#444; stroke-width:1" />
                <line x1="205" y1="695.5" x2="205" y2="725.5"
                style="fill:#a5d6a7; stroke:#444; stroke-width:1" />
             
                <title>(files) =&gt;</title>
            <text x="112" y="715.5"
                font-family="monospace" font-size="13" fill="#222">
                <tspan x="112" y="715.5">(files) =&gt;</tspan>
            </text>
                
            </g>
                <g>
                   <rect x="124" y="744"
            width="162.6" height="30"
            rx="3" ry="3"
            style="fill:#90caf9; stroke:#444; stroke-width:1" />
                   <title>validInput = true</title>
            <text x="139" y="764"
                font-family="monospace" font-size="13" fill="#222">
                <tspan x="139" y="764">validInput = true</tspan>
            </text>
                   
                   
                </g>
                <g>
                   <rect x="124" y="792.5"
            width="123.6" height="30"
            rx="3" ry="3"
            style="fill:#90caf9; stroke:#444; stroke-width:1" />
                   <title>let input = </title>
            <text x="139" y="812.5"
                font-family="monospace" font-size="13" fill="#222">
                <tspan x="139" y="812.5">let input = </tspan>
            </text>
                   
                   
                </g><g>
            <rect x="191" y="856"
            width="200.4" height="30"
            rx="3" ry="3"
            style="fill:#ce93d8; stroke:#444; stroke-width:1" />                
            <polygon points="161,871 191,841 221,871 191,901"
            style="fill:#ce93d8; stroke:#444; stroke-width:1" />
            <title>(prgm.interactive)</title>
            <text x="236" y="876"
                font-family="monospace" font-size="13" fill="#222">
                <tspan x="236" y="876">(prgm.interactive)</tspan>
            </text>
            
            <text x="187.1" y="876"
        font-family="monospace" font-size="13" fill="#222">?</text> <text x="198.8" y="902.95"
        font-family="monospace" font-size="13" fill="#222">+</text> <text x="395.29999999999995" y="869.05"
        font-family="monospace" font-size="13" fill="#222">-</text>
        </g>
                <g>
                   <rect x="211" y="911"
            width="84.6" height="30"
            rx="3" ry="3"
            style="fill:#90caf9; stroke:#444; stroke-width:1" />
                   <title>&apos;stdin&apos;</title>
            <text x="226" y="931"
                font-family="monospace" font-size="13" fill="#222">
                <tspan x="226" y="931">&apos;stdin&apos;</tspan>
            </text>
                   
                   
                </g>
                <g>
                   <rect x="451.4" y="911"
            width="69" height="30"
            rx="3" ry="3"
            style="fill:#90caf9; stroke:#444; stroke-width:1" />
                   <title>&apos;any&apos;</title>
            <text x="466.4" y="931"
                font-family="monospace" font-size="13" fill="#222">
                <tspan x="466.4" y="931">&apos;any&apos;</tspan>
            </text>
                   
                   
                </g>
                <g>
                   <rect x="124" y="961"
            width="443.4" height="30"
            rx="2" ry="2"
            style="fill:#C5E1A5; stroke:#444; stroke-width:1" />
                   <title>hmj.run(prgm.format || &apos;text&apos;, input, prgm.output || &apos;STDOUT&apos;, files, !!prgm.prettify)</title>
            <text x="139" y="981"
                font-family="monospace" font-size="13" fill="#222">
                <tspan x="139" y="981">hmj.run(prgm.format || &apos;text&apos;, input, prgm.output ...</tspan>
            </text>
                   
                   
                </g>
                <g>
                   <rect x="50" y="1009.5"
            width="186" height="30"
            rx="2" ry="2"
            style="fill:#C5E1A5; stroke:#444; stroke-width:1" />
                   <title>.parse(process.argv)</title>
            <text x="65" y="1029.5"
                font-family="monospace" font-size="13" fill="#222">
                <tspan x="65" y="1029.5">.parse(process.argv)</tspan>
            </text>
                   <circle cx="56" cy="1033.5" r="4"
        style="fill:#ede7f6; stroke:#444; stroke-width:1" />
                   
                </g>
            <g>
               <rect x="25" y="13.75"
            width="216.6" height="24"
            style="fill:#fff59d; stroke:#444; stroke-width:1" />
               <circle cx="25" cy="25" r="15"
        style="fill:#fff59d; stroke:#444; stroke-width:1" />
               <title>Program: source module</title>
            <text x="55" y="30"
                font-family="monospace" font-size="13" fill="#222">
                <tspan x="55" y="30">Program: source module</tspan>
            </text>
            </g>
            <g>
               <path d="M25, 40 L25 76 Q25 80
                29 80
                L42 80 "
        style="fill:none; stroke:#444; stroke-width:1" />
               <path d="M42, 77 L50, 80 L42, 83 Z" 
        fill="#333" />
            </g>
            <g>
               <path d="M25, 40 L25 124.5 Q25 128.5
                29 128.5
                L42 128.5 "
        style="fill:none; stroke:#444; stroke-width:1" />
               <path d="M42, 125.5 L50, 128.5 L42, 131.5 Z" 
        fill="#333" />
            </g>
            <g>
               <path d="M25, 40 L25 173 Q25 177
                29 177
                L42 177 "
        style="fill:none; stroke:#444; stroke-width:1" />
               <path d="M42, 174 L50, 177 L42, 180 Z" 
        fill="#333" />
            </g>
            <g>
               <path d="M25, 40 L25 221.5 Q25 225.5
                29 225.5
                L42 225.5 "
        style="fill:none; stroke:#444; stroke-width:1" />
               <path d="M42, 222.5 L50, 225.5 L42, 228.5 Z" 
        fill="#333" />
            </g>
            <g>
               <path d="M25, 40 L25 270 Q25 274
                29 274
                L42 274 "
        style="fill:none; stroke:#444; stroke-width:1" />
               <path d="M42, 271 L50, 274 L42, 277 Z" 
        fill="#333" />
            </g>
            <g>
               <path d="M25, 40 L25 318.5 Q25 322.5
                29 322.5
                L42 322.5 "
        style="fill:none; stroke:#444; stroke-width:1" />
               <path d="M42, 319.5 L50, 322.5 L42, 325.5 Z" 
        fill="#333" />
            </g>
            <g>
               <path d="M25, 40 L25 367 Q25 371
                29 371
                L42 371 "
        style="fill:none; stroke:#444; stroke-width:1" />
               <path d="M42, 368 L50, 371 L42, 374 Z" 
        fill="#333" />
            </g>
            <g>
               <path d="M25, 40 L25 415.5 Q25 419.5
                29 419.5
                L42 419.5 "
        style="fill:none; stroke:#444; stroke-width:1" />
               <path d="M42, 416.5 L50, 419.5 L42, 422.5 Z" 
        fill="#333" />
            </g>
            <g>
               <path d="M25, 40 L25 464 Q25 468
                29 468
                L42 468 "
        style="fill:none; stroke:#444; stroke-width:1" />
               <path d="M42, 465 L50, 468 L42, 471 Z" 
        fill="#333" />
            </g>
            <g>
               <path d="M25, 40 L25 512.5 Q25 516.5
                29 516.5
                L42 516.5 "
        style="fill:none; stroke:#444; stroke-width:1" />
               <path d="M42, 513.5 L50, 516.5 L42, 519.5 Z" 
        fill="#333" />
            </g>
            <g>
               <path d="M25, 40 L25 561 Q25 565
                29 565
                L42 565 "
        style="fill:none; stroke:#444; stroke-width:1" />
               <path d="M42, 562 L50, 565 L42, 568 Z" 
        fill="#333" />
            </g>
            <g>
               <path d="M25, 40 L25 609.5 Q25 613.5
                29 613.5
                L42 613.5 "
        style="fill:none; stroke:#444; stroke-width:1" />
               <path d="M42, 610.5 L50, 613.5 L42, 616.5 Z" 
        fill="#333" />
            </g>
            <g>
               <path d="M25, 40 L25 658 Q25 662
                29 662
                L42 662 "
        style="fill:none; stroke:#444; stroke-width:1" />
               <path d="M42, 659 L50, 662 L42, 665 Z" 
        fill="#333" />
            </g>
            <g>
               <path d="M68.5, 677 L68.5 706.5 Q68.5 710.5
                72.5 710.5
                L87 710.5 "
        style="fill:none; stroke:#444; stroke-width:1" />
               false
            </g>
            <g>
               <path d="M105.5, 725.5 L105.5 755 Q105.5 759
                109.5 759
                L116 759 "
        style="fill:none; stroke:#444; stroke-width:1" />
               <path d="M116, 756 L124, 759 L116, 762 Z" 
        fill="#333" />
            </g>
            <g>
               <path d="M105.5, 725.5 L105.5 803.5 Q105.5 807.5
                109.5 807.5
                L116 807.5 "
        style="fill:none; stroke:#444; stroke-width:1" />
               <path d="M116, 804.5 L124, 807.5 L116, 810.5 Z" 
        fill="#333" />
            </g>
            <g>
               <path d="M142.5, 822.5 L142.5 867 Q142.5 871
                146.5 871
                L153 871 "
        style="fill:none; stroke:#444; stroke-width:1" />
               <path d="M153, 868 L161, 871 L153, 874 Z" 
        fill="#333" />
            </g>
            <g>
               <path d="M191, 901 L191 922 Q191 926
                195 926
                L203 926 "
        style="fill:none; stroke:#444; stroke-width:1" />
               <path d="M203, 923 L211, 926 L203, 929 Z" 
        fill="#333" />
            </g>
            <g>
               <path d="M391.4, 871 L427.4 871  Q431.4 871
                431.4 875
                L431.4 918 Q431.4 926
                435.4 926
                L443.4 926 "
        style="fill:none; stroke:#444; stroke-width:1" />
               <path d="M443.4, 923 L451.4, 926 L443.4, 929 Z" 
        fill="#333" />
            </g>
            <g>
               <path d="M105.5, 725.5 L105.5 972 Q105.5 976
                109.5 976
                L116 976 "
        style="fill:none; stroke:#444; stroke-width:1" />
               <path d="M116, 973 L124, 976 L116, 979 Z" 
        fill="#333" />
            </g>
            <g>
               <path d="M25, 40 L25 1020.5 Q25 1024.5
                29 1024.5
                L42 1024.5 "
        style="fill:none; stroke:#444; stroke-width:1" />
               <path d="M42, 1021.5 L50, 1024.5 L42, 1027.5 Z" 
        fill="#333" />
            </g>
            </svg>