<!DOCTYPE svg PUBLIC "-//W3C//DTD SVG 1.1//EN" "http://www.w3.org/Graphics/SVG/1.1/DTD/svg11.dtd">
                <svg xmlns="http://www.w3.org/2000/svg" xmlns:xlink="http://www.w3.org/1999/xlink" 
                width="546" height="2404">
                
                <g>
                   <rect x="50" y="65"
            width="295.2" height="30"
            rx="3" ry="3"
            style="fill:#90caf9; stroke:#444; stroke-width:1" />
                   <title>const clr = require(&apos;colors/safe&apos;)</title>
            <text x="65" y="85"
                font-family="monospace" font-size="13" fill="#222">
                <tspan x="65" y="85">const clr = require(&apos;colors/safe&apos;)</tspan>
            </text>
                   
                   
                </g>
                <g>
                   <rect x="50" y="113.5"
            width="264" height="30"
            rx="2" ry="2"
            style="fill:#C5E1A5; stroke:#444; stroke-width:1" />
                   <title>clr.setTheme(require(&apos;./clr&apos;))</title>
            <text x="65" y="133.5"
                font-family="monospace" font-size="13" fill="#222">
                <tspan x="65" y="133.5">clr.setTheme(require(&apos;./clr&apos;))</tspan>
            </text>
                   
                   
                </g>
            <g>
                <rect x="50" y="177"
            width="190.4" height="30"
            style="fill:#a5d6a7; stroke:#444; stroke-width:1" />
                    
                <line x1="60" y1="177" x2="60" y2="207"
                style="fill:#a5d6a7; stroke:#444; stroke-width:1" />
                <line x1="230.4" y1="177" x2="230.4" y2="207"
                style="fill:#a5d6a7; stroke:#444; stroke-width:1" />
             
                <title>log = (...data) =&gt;</title>
            <text x="75" y="197"
                font-family="monospace" font-size="13" fill="#222">
                <tspan x="75" y="197">log = (...data) =&gt;</tspan>
            </text>
                
            </g>
                <g>
                   <rect x="87" y="225.5"
            width="61.2" height="30"
            rx="3" ry="3"
            style="fill:#90caf9; stroke:#444; stroke-width:1" />
                   <title>data</title>
            <text x="102" y="245.5"
                font-family="monospace" font-size="13" fill="#222">
                <tspan x="102" y="245.5">data</tspan>
            </text>
                   
                   
                </g>
            <g>
                <rect x="87" y="274"
            width="310.8" height="30"
            rx="3" ry="3"
            style="fill:#90caf9; stroke:#444; stroke-width:1" />
                
                <line x1="397.8" y1="284" x2="402.8" y2="284"
                style="fill:#a5d6a7; stroke:#444; stroke-width:1" />
                
                <line x1="397.8" y1="294" x2="402.8" y2="294"
                style="fill:#a5d6a7; stroke:#444; stroke-width:1" />

                <path d="M402.8, 278 L418.8, 289 L402.8, 300 Z" 
        fill="#a5d6a7" stroke="#444" stroke-width="1" />
                             
                <title>return process.stdout.write(...data)</title>
            <text x="102" y="294"
                font-family="monospace" font-size="13" fill="#222">
                <tspan x="102" y="294">return process.stdout.write(...data)</tspan>
            </text>
                
            </g>
            <g>
                <rect x="50" y="337.5"
            width="206" height="30"
            style="fill:#a5d6a7; stroke:#444; stroke-width:1" />
                    
                <line x1="60" y1="337.5" x2="60" y2="367.5"
                style="fill:#a5d6a7; stroke:#444; stroke-width:1" />
                <line x1="246" y1="337.5" x2="246" y2="367.5"
                style="fill:#a5d6a7; stroke:#444; stroke-width:1" />
             
                <title>error = (...data) =&gt;</title>
            <text x="75" y="357.5"
                font-family="monospace" font-size="13" fill="#222">
                <tspan x="75" y="357.5">error = (...data) =&gt;</tspan>
            </text>
                
            </g>
                <g>
                   <rect x="87" y="386"
            width="61.2" height="30"
            rx="3" ry="3"
            style="fill:#90caf9; stroke:#444; stroke-width:1" />
                   <title>data</title>
            <text x="102" y="406"
                font-family="monospace" font-size="13" fill="#222">
                <tspan x="102" y="406">data</tspan>
            </text>
                   
                   
                </g>
            <g>
                <rect x="87" y="434.5"
            width="357.59999999999997" height="30"
            rx="3" ry="3"
            style="fill:#90caf9; stroke:#444; stroke-width:1" />
                
                <line x1="444.59999999999997" y1="444.5" x2="449.59999999999997" y2="444.5"
                style="fill:#a5d6a7; stroke:#444; stroke-width:1" />
                
                <line x1="444.59999999999997" y1="454.5" x2="449.59999999999997" y2="454.5"
                style="fill:#a5d6a7; stroke:#444; stroke-width:1" />

                <path d="M449.59999999999997, 438.5 L465.59999999999997, 449.5 L449.59999999999997, 460.5 Z" 
        fill="#a5d6a7" stroke="#444" stroke-width="1" />
                             
                <title>return log(clr.err(data.join(&apos; &apos;)) + &apos;\n&apos;)</title>
            <text x="102" y="454.5"
                font-family="monospace" font-size="13" fill="#222">
                <tspan x="102" y="454.5">return log(clr.err(data.join(&apos; &apos;)) + &apos;\n&apos;)</tspan>
            </text>
                
            </g>
            <g>
                <rect x="50" y="498"
            width="198.2" height="30"
            style="fill:#a5d6a7; stroke:#444; stroke-width:1" />
                    
                <line x1="60" y1="498" x2="60" y2="528"
                style="fill:#a5d6a7; stroke:#444; stroke-width:1" />
                <line x1="238.2" y1="498" x2="238.2" y2="528"
                style="fill:#a5d6a7; stroke:#444; stroke-width:1" />
             
                <title>info = (...data) =&gt;</title>
            <text x="75" y="518"
                font-family="monospace" font-size="13" fill="#222">
                <tspan x="75" y="518">info = (...data) =&gt;</tspan>
            </text>
                
            </g>
                <g>
                   <rect x="87" y="546.5"
            width="61.2" height="30"
            rx="3" ry="3"
            style="fill:#90caf9; stroke:#444; stroke-width:1" />
                   <title>data</title>
            <text x="102" y="566.5"
                font-family="monospace" font-size="13" fill="#222">
                <tspan x="102" y="566.5">data</tspan>
            </text>
                   
                   
                </g>
            <g>
                <rect x="87" y="595"
            width="357.59999999999997" height="30"
            rx="3" ry="3"
            style="fill:#90caf9; stroke:#444; stroke-width:1" />
                
                <line x1="444.59999999999997" y1="605" x2="449.59999999999997" y2="605"
                style="fill:#a5d6a7; stroke:#444; stroke-width:1" />
                
                <line x1="444.59999999999997" y1="615" x2="449.59999999999997" y2="615"
                style="fill:#a5d6a7; stroke:#444; stroke-width:1" />

                <path d="M449.59999999999997, 599 L465.59999999999997, 610 L449.59999999999997, 621 Z" 
        fill="#a5d6a7" stroke="#444" stroke-width="1" />
                             
                <title>return log(clr.inf(data.join(&apos; &apos;)) + &apos;\n&apos;)</title>
            <text x="102" y="615"
                font-family="monospace" font-size="13" fill="#222">
                <tspan x="102" y="615">return log(clr.inf(data.join(&apos; &apos;)) + &apos;\n&apos;)</tspan>
            </text>
                
            </g>
            <g>
                <rect x="50" y="658.5"
            width="190.4" height="30"
            style="fill:#a5d6a7; stroke:#444; stroke-width:1" />
                    
                <line x1="60" y1="658.5" x2="60" y2="688.5"
                style="fill:#a5d6a7; stroke:#444; stroke-width:1" />
                <line x1="230.4" y1="658.5" x2="230.4" y2="688.5"
                style="fill:#a5d6a7; stroke:#444; stroke-width:1" />
             
                <title>dbg = (...data) =&gt;</title>
            <text x="75" y="678.5"
                font-family="monospace" font-size="13" fill="#222">
                <tspan x="75" y="678.5">dbg = (...data) =&gt;</tspan>
            </text>
                
            </g>
                <g>
                   <rect x="87" y="707"
            width="61.2" height="30"
            rx="3" ry="3"
            style="fill:#90caf9; stroke:#444; stroke-width:1" />
                   <title>data</title>
            <text x="102" y="727"
                font-family="monospace" font-size="13" fill="#222">
                <tspan x="102" y="727">data</tspan>
            </text>
                   
                   
                </g>
            <g>
                <rect x="87" y="755.5"
            width="373.2" height="30"
            rx="3" ry="3"
            style="fill:#90caf9; stroke:#444; stroke-width:1" />
                
                <line x1="460.2" y1="765.5" x2="465.2" y2="765.5"
                style="fill:#a5d6a7; stroke:#444; stroke-width:1" />
                
                <line x1="460.2" y1="775.5" x2="465.2" y2="775.5"
                style="fill:#a5d6a7; stroke:#444; stroke-width:1" />

                <path d="M465.2, 759.5 L481.2, 770.5 L465.2, 781.5 Z" 
        fill="#a5d6a7" stroke="#444" stroke-width="1" />
                             
                <title>return log(clr.debug(data.join(&apos; &apos;)) + &apos;\n&apos;)</title>
            <text x="102" y="775.5"
                font-family="monospace" font-size="13" fill="#222">
                <tspan x="102" y="775.5">return log(clr.debug(data.join(&apos; &apos;)) + &apos;\n&apos;)</tspan>
            </text>
                
            </g>
            <g>
                <rect x="50" y="819"
            width="190.4" height="30"
            style="fill:#a5d6a7; stroke:#444; stroke-width:1" />
                    
                <line x1="60" y1="819" x2="60" y2="849"
                style="fill:#a5d6a7; stroke:#444; stroke-width:1" />
                <line x1="230.4" y1="819" x2="230.4" y2="849"
                style="fill:#a5d6a7; stroke:#444; stroke-width:1" />
             
                <title>out = (...data) =&gt;</title>
            <text x="75" y="839"
                font-family="monospace" font-size="13" fill="#222">
                <tspan x="75" y="839">out = (...data) =&gt;</tspan>
            </text>
                
            </g>
                <g>
                   <rect x="87" y="867.5"
            width="61.2" height="30"
            rx="3" ry="3"
            style="fill:#90caf9; stroke:#444; stroke-width:1" />
                   <title>data</title>
            <text x="102" y="887.5"
                font-family="monospace" font-size="13" fill="#222">
                <tspan x="102" y="887.5">data</tspan>
            </text>
                   
                   
                </g>
            <g>
                <rect x="87" y="916"
            width="357.59999999999997" height="30"
            rx="3" ry="3"
            style="fill:#90caf9; stroke:#444; stroke-width:1" />
                
                <line x1="444.59999999999997" y1="926" x2="449.59999999999997" y2="926"
                style="fill:#a5d6a7; stroke:#444; stroke-width:1" />
                
                <line x1="444.59999999999997" y1="936" x2="449.59999999999997" y2="936"
                style="fill:#a5d6a7; stroke:#444; stroke-width:1" />

                <path d="M449.59999999999997, 920 L465.59999999999997, 931 L449.59999999999997, 942 Z" 
        fill="#a5d6a7" stroke="#444" stroke-width="1" />
                             
                <title>return log(clr.out(data.join(&apos; &apos;)) + &apos;\n&apos;)</title>
            <text x="102" y="936"
                font-family="monospace" font-size="13" fill="#222">
                <tspan x="102" y="936">return log(clr.out(data.join(&apos; &apos;)) + &apos;\n&apos;)</tspan>
            </text>
                
            </g>
            <g>
                <rect x="50" y="979.5"
            width="190.4" height="30"
            style="fill:#a5d6a7; stroke:#444; stroke-width:1" />
                    
                <line x1="60" y1="979.5" x2="60" y2="1009.5"
                style="fill:#a5d6a7; stroke:#444; stroke-width:1" />
                <line x1="230.4" y1="979.5" x2="230.4" y2="1009.5"
                style="fill:#a5d6a7; stroke:#444; stroke-width:1" />
             
                <title>inp = (...data) =&gt;</title>
            <text x="75" y="999.5"
                font-family="monospace" font-size="13" fill="#222">
                <tspan x="75" y="999.5">inp = (...data) =&gt;</tspan>
            </text>
                
            </g>
                <g>
                   <rect x="87" y="1028"
            width="61.2" height="30"
            rx="3" ry="3"
            style="fill:#90caf9; stroke:#444; stroke-width:1" />
                   <title>data</title>
            <text x="102" y="1048"
                font-family="monospace" font-size="13" fill="#222">
                <tspan x="102" y="1048">data</tspan>
            </text>
                   
                   
                </g>
            <g>
                <rect x="87" y="1076.5"
            width="349.8" height="30"
            rx="3" ry="3"
            style="fill:#90caf9; stroke:#444; stroke-width:1" />
                
                <line x1="436.8" y1="1086.5" x2="441.8" y2="1086.5"
                style="fill:#a5d6a7; stroke:#444; stroke-width:1" />
                
                <line x1="436.8" y1="1096.5" x2="441.8" y2="1096.5"
                style="fill:#a5d6a7; stroke:#444; stroke-width:1" />

                <path d="M441.8, 1080.5 L457.8, 1091.5 L441.8, 1102.5 Z" 
        fill="#a5d6a7" stroke="#444" stroke-width="1" />
                             
                <title>return log(clr.in(data.join(&apos; &apos;)) + &apos;\n&apos;)</title>
            <text x="102" y="1096.5"
                font-family="monospace" font-size="13" fill="#222">
                <tspan x="102" y="1096.5">return log(clr.in(data.join(&apos; &apos;)) + &apos;\n&apos;)</tspan>
            </text>
                
            </g>
            <g>
                <rect x="50" y="1140"
            width="198.2" height="30"
            style="fill:#a5d6a7; stroke:#444; stroke-width:1" />
                    
                <line x1="60" y1="1140" x2="60" y2="1170"
                style="fill:#a5d6a7; stroke:#444; stroke-width:1" />
                <line x1="238.2" y1="1140" x2="238.2" y2="1170"
                style="fill:#a5d6a7; stroke:#444; stroke-width:1" />
             
                <title>warn = (...data) =&gt;</title>
            <text x="75" y="1160"
                font-family="monospace" font-size="13" fill="#222">
                <tspan x="75" y="1160">warn = (...data) =&gt;</tspan>
            </text>
                
            </g>
                <g>
                   <rect x="87" y="1188.5"
            width="61.2" height="30"
            rx="3" ry="3"
            style="fill:#90caf9; stroke:#444; stroke-width:1" />
                   <title>data</title>
            <text x="102" y="1208.5"
                font-family="monospace" font-size="13" fill="#222">
                <tspan x="102" y="1208.5">data</tspan>
            </text>
                   
                   
                </g>
            <g>
                <rect x="87" y="1237"
            width="365.4" height="30"
            rx="3" ry="3"
            style="fill:#90caf9; stroke:#444; stroke-width:1" />
                
                <line x1="452.4" y1="1247" x2="457.4" y2="1247"
                style="fill:#a5d6a7; stroke:#444; stroke-width:1" />
                
                <line x1="452.4" y1="1257" x2="457.4" y2="1257"
                style="fill:#a5d6a7; stroke:#444; stroke-width:1" />

                <path d="M457.4, 1241 L473.4, 1252 L457.4, 1263 Z" 
        fill="#a5d6a7" stroke="#444" stroke-width="1" />
                             
                <title>return log(clr.warn(data.join(&apos; &apos;)) + &apos;\n&apos;)</title>
            <text x="102" y="1257"
                font-family="monospace" font-size="13" fill="#222">
                <tspan x="102" y="1257">return log(clr.warn(data.join(&apos; &apos;)) + &apos;\n&apos;)</tspan>
            </text>
                
            </g>
            <g>
                <rect x="50" y="1300.5"
            width="206" height="30"
            style="fill:#a5d6a7; stroke:#444; stroke-width:1" />
                    
                <line x1="60" y1="1300.5" x2="60" y2="1330.5"
                style="fill:#a5d6a7; stroke:#444; stroke-width:1" />
                <line x1="246" y1="1300.5" x2="246" y2="1330.5"
                style="fill:#a5d6a7; stroke:#444; stroke-width:1" />
             
                <title>quest = (...data) =&gt;</title>
            <text x="75" y="1320.5"
                font-family="monospace" font-size="13" fill="#222">
                <tspan x="75" y="1320.5">quest = (...data) =&gt;</tspan>
            </text>
                
            </g>
                <g>
                   <rect x="87" y="1349"
            width="61.2" height="30"
            rx="3" ry="3"
            style="fill:#90caf9; stroke:#444; stroke-width:1" />
                   <title>data</title>
            <text x="102" y="1369"
                font-family="monospace" font-size="13" fill="#222">
                <tspan x="102" y="1369">data</tspan>
            </text>
                   
                   
                </g>
            <g>
                <rect x="87" y="1397.5"
            width="373.2" height="30"
            rx="3" ry="3"
            style="fill:#90caf9; stroke:#444; stroke-width:1" />
                
                <line x1="460.2" y1="1407.5" x2="465.2" y2="1407.5"
                style="fill:#a5d6a7; stroke:#444; stroke-width:1" />
                
                <line x1="460.2" y1="1417.5" x2="465.2" y2="1417.5"
                style="fill:#a5d6a7; stroke:#444; stroke-width:1" />

                <path d="M465.2, 1401.5 L481.2, 1412.5 L465.2, 1423.5 Z" 
        fill="#a5d6a7" stroke="#444" stroke-width="1" />
                             
                <title>return log(clr.quest(data.join(&apos; &apos;)) + &apos;\n&apos;)</title>
            <text x="102" y="1417.5"
                font-family="monospace" font-size="13" fill="#222">
                <tspan x="102" y="1417.5">return log(clr.quest(data.join(&apos; &apos;)) + &apos;\n&apos;)</tspan>
            </text>
                
            </g>
            <g>
                <rect x="50" y="1461"
            width="268.4" height="30"
            style="fill:#80cbc4; stroke:#444; stroke-width:1" />
                    
                <line x1="60" y1="1461" x2="60" y2="1491"
                style="fill:#80cbc4; stroke:#444; stroke-width:1" />
                <line x1="308.4" y1="1461" x2="308.4" y2="1491"
                style="fill:#80cbc4; stroke:#444; stroke-width:1" />
             
                <title>class IoError  extends Error</title>
            <text x="75" y="1481"
                font-family="monospace" font-size="13" fill="#222">
                <tspan x="75" y="1481">class IoError  extends Error</tspan>
            </text>
                
            </g>
            <g>
                <rect x="87" y="1509.5"
            width="385.4" height="30"
            style="fill:#a5d6a7; stroke:#444; stroke-width:1" />
                    
                <line x1="97" y1="1509.5" x2="97" y2="1539.5"
                style="fill:#a5d6a7; stroke:#444; stroke-width:1" />
                <line x1="462.4" y1="1509.5" x2="462.4" y2="1539.5"
                style="fill:#a5d6a7; stroke:#444; stroke-width:1" />
             
                <title>constructor(message = &apos;IO error:&apos;, context)</title>
            <text x="112" y="1529.5"
                font-family="monospace" font-size="13" fill="#222">
                <tspan x="112" y="1529.5">constructor(message = &apos;IO error:&apos;, context)</tspan>
            </text>
                
            </g>
                <g>
                   <rect x="124" y="1558"
            width="84.6" height="30"
            rx="2" ry="2"
            style="fill:#C5E1A5; stroke:#444; stroke-width:1" />
                   <title>super()</title>
            <text x="139" y="1578"
                font-family="monospace" font-size="13" fill="#222">
                <tspan x="139" y="1578">super()</tspan>
            </text>
                   
                   
                </g>
                <g>
                   <rect x="124" y="1606.5"
            width="201.6" height="30"
            rx="3" ry="3"
            style="fill:#90caf9; stroke:#444; stroke-width:1" />
                   <title>this.message = message</title>
            <text x="139" y="1626.5"
                font-family="monospace" font-size="13" fill="#222">
                <tspan x="139" y="1626.5">this.message = message</tspan>
            </text>
                   
                   
                </g>
                <g>
                   <rect x="124" y="1655"
            width="287.4" height="30"
            rx="3" ry="3"
            style="fill:#90caf9; stroke:#444; stroke-width:1" />
                   <title>this.name = this.constructor.name</title>
            <text x="139" y="1675"
                font-family="monospace" font-size="13" fill="#222">
                <tspan x="139" y="1675">this.name = this.constructor.name</tspan>
            </text>
                   
                   
                </g>
                <g>
                   <rect x="124" y="1703.5"
            width="396.59999999999997" height="30"
            rx="2" ry="2"
            style="fill:#C5E1A5; stroke:#444; stroke-width:1" />
                   <title>Error.captureStackTrace(this, this.constructor)</title>
            <text x="139" y="1723.5"
                font-family="monospace" font-size="13" fill="#222">
                <tspan x="139" y="1723.5">Error.captureStackTrace(this, this.constructor)</tspan>
            </text>
                   
                   
                </g>
                <g>
                   <rect x="124" y="1752"
            width="201.6" height="30"
            rx="3" ry="3"
            style="fill:#90caf9; stroke:#444; stroke-width:1" />
                   <title>this.context = context</title>
            <text x="139" y="1772"
                font-family="monospace" font-size="13" fill="#222">
                <tspan x="139" y="1772">this.context = context</tspan>
            </text>
                   
                   
                </g>
            <g>
                <rect x="50" y="1815.5"
            width="159.2" height="30"
            style="fill:#a5d6a7; stroke:#444; stroke-width:1" />
                    
                <line x1="60" y1="1815.5" x2="60" y2="1845.5"
                style="fill:#a5d6a7; stroke:#444; stroke-width:1" />
                <line x1="199.2" y1="1815.5" x2="199.2" y2="1845.5"
                style="fill:#a5d6a7; stroke:#444; stroke-width:1" />
             
                <title>EOF = (str) =&gt;</title>
            <text x="75" y="1835.5"
                font-family="monospace" font-size="13" fill="#222">
                <tspan x="75" y="1835.5">EOF = (str) =&gt;</tspan>
            </text>
                
            </g>
                <g>
                   <rect x="50" y="1864"
            width="186" height="30"
            rx="3" ry="3"
            style="fill:#90caf9; stroke:#444; stroke-width:1" />
                   <title>module.exports = {*}</title>
            <text x="65" y="1884"
                font-family="monospace" font-size="13" fill="#222">
                <tspan x="65" y="1884">module.exports = {*}</tspan>
            </text>
                   
                   
                </g>
                <g>
                   <rect x="87" y="1912.5"
            width="69" height="30"
            rx="2" ry="2"
            style="fill:#90caf9; stroke:#444; stroke-width:1" />
                   <title>error</title>
            <text x="102" y="1932.5"
                font-family="monospace" font-size="13" fill="#222">
                <tspan x="102" y="1932.5">error</tspan>
            </text>
                   
                   
                </g>
                <g>
                   <rect x="87" y="1961"
            width="61.2" height="30"
            rx="2" ry="2"
            style="fill:#90caf9; stroke:#444; stroke-width:1" />
                   <title>info</title>
            <text x="102" y="1981"
                font-family="monospace" font-size="13" fill="#222">
                <tspan x="102" y="1981">info</tspan>
            </text>
                   
                   
                </g>
                <g>
                   <rect x="87" y="2009.5"
            width="53.4" height="30"
            rx="2" ry="2"
            style="fill:#90caf9; stroke:#444; stroke-width:1" />
                   <title>dbg</title>
            <text x="102" y="2029.5"
                font-family="monospace" font-size="13" fill="#222">
                <tspan x="102" y="2029.5">dbg</tspan>
            </text>
                   
                   
                </g>
                <g>
                   <rect x="87" y="2058"
            width="53.4" height="30"
            rx="2" ry="2"
            style="fill:#90caf9; stroke:#444; stroke-width:1" />
                   <title>out</title>
            <text x="102" y="2078"
                font-family="monospace" font-size="13" fill="#222">
                <tspan x="102" y="2078">out</tspan>
            </text>
                   
                   
                </g>
                <g>
                   <rect x="87" y="2106.5"
            width="53.4" height="30"
            rx="2" ry="2"
            style="fill:#90caf9; stroke:#444; stroke-width:1" />
                   <title>inp</title>
            <text x="102" y="2126.5"
                font-family="monospace" font-size="13" fill="#222">
                <tspan x="102" y="2126.5">inp</tspan>
            </text>
                   
                   
                </g>
                <g>
                   <rect x="87" y="2155"
            width="61.2" height="30"
            rx="2" ry="2"
            style="fill:#90caf9; stroke:#444; stroke-width:1" />
                   <title>warn</title>
            <text x="102" y="2175"
                font-family="monospace" font-size="13" fill="#222">
                <tspan x="102" y="2175">warn</tspan>
            </text>
                   
                   
                </g>
                <g>
                   <rect x="87" y="2203.5"
            width="69" height="30"
            rx="2" ry="2"
            style="fill:#90caf9; stroke:#444; stroke-width:1" />
                   <title>quest</title>
            <text x="102" y="2223.5"
                font-family="monospace" font-size="13" fill="#222">
                <tspan x="102" y="2223.5">quest</tspan>
            </text>
                   
                   
                </g>
                <g>
                   <rect x="87" y="2252"
            width="84.6" height="30"
            rx="2" ry="2"
            style="fill:#90caf9; stroke:#444; stroke-width:1" />
                   <title>IoError</title>
            <text x="102" y="2272"
                font-family="monospace" font-size="13" fill="#222">
                <tspan x="102" y="2272">IoError</tspan>
            </text>
                   
                   
                </g>
                <g>
                   <rect x="87" y="2300.5"
            width="53.4" height="30"
            rx="2" ry="2"
            style="fill:#90caf9; stroke:#444; stroke-width:1" />
                   <title>log</title>
            <text x="102" y="2320.5"
                font-family="monospace" font-size="13" fill="#222">
                <tspan x="102" y="2320.5">log</tspan>
            </text>
                   
                   
                </g>
                <g>
                   <rect x="87" y="2349"
            width="53.4" height="30"
            rx="2" ry="2"
            style="fill:#90caf9; stroke:#444; stroke-width:1" />
                   <title>EOF</title>
            <text x="102" y="2369"
                font-family="monospace" font-size="13" fill="#222">
                <tspan x="102" y="2369">EOF</tspan>
            </text>
                   
                   
                </g>
            <g>
               <rect x="25" y="13.75"
            width="216.6" height="24"
            style="fill:#fff59d; stroke:#444; stroke-width:1" />
               <circle cx="25" cy="25" r="15"
        style="fill:#fff59d; stroke:#444; stroke-width:1" />
               <title>Program: source module</title>
            <text x="55" y="30"
                font-family="monospace" font-size="13" fill="#222">
                <tspan x="55" y="30">Program: source module</tspan>
            </text>
            </g>
            <g>
               <path d="M25, 40 L25 76 Q25 80
                29 80
                L42 80 "
        style="fill:none; stroke:#444; stroke-width:1" />
               <path d="M42, 77 L50, 80 L42, 83 Z" 
        fill="#333" />
            </g>
            <g>
               <path d="M25, 40 L25 124.5 Q25 128.5
                29 128.5
                L42 128.5 "
        style="fill:none; stroke:#444; stroke-width:1" />
               <path d="M42, 125.5 L50, 128.5 L42, 131.5 Z" 
        fill="#333" />
            </g>
            <g>
               <path d="M25, 40 L25 188 Q25 192
                29 192
                L42 192 "
        style="fill:none; stroke:#444; stroke-width:1" />
               <path d="M42, 189 L50, 192 L42, 195 Z" 
        fill="#333" />
            </g>
            <g>
               <path d="M68.5, 207 L68.5 236.5 Q68.5 240.5
                72.5 240.5
                L79 240.5 "
        style="fill:none; stroke:#444; stroke-width:1" />
               <path d="M79, 237.5 L87, 240.5 L79, 243.5 Z" 
        fill="#333" />
            </g>
            <g>
               <path d="M68.5, 207 L68.5 285 Q68.5 289
                72.5 289
                L79 289 "
        style="fill:none; stroke:#444; stroke-width:1" />
               <path d="M79, 286 L87, 289 L79, 292 Z" 
        fill="#333" />
            </g>
            <g>
               <path d="M25, 40 L25 348.5 Q25 352.5
                29 352.5
                L42 352.5 "
        style="fill:none; stroke:#444; stroke-width:1" />
               <path d="M42, 349.5 L50, 352.5 L42, 355.5 Z" 
        fill="#333" />
            </g>
            <g>
               <path d="M68.5, 367.5 L68.5 397 Q68.5 401
                72.5 401
                L79 401 "
        style="fill:none; stroke:#444; stroke-width:1" />
               <path d="M79, 398 L87, 401 L79, 404 Z" 
        fill="#333" />
            </g>
            <g>
               <path d="M68.5, 367.5 L68.5 445.5 Q68.5 449.5
                72.5 449.5
                L79 449.5 "
        style="fill:none; stroke:#444; stroke-width:1" />
               <path d="M79, 446.5 L87, 449.5 L79, 452.5 Z" 
        fill="#333" />
            </g>
            <g>
               <path d="M25, 40 L25 509 Q25 513
                29 513
                L42 513 "
        style="fill:none; stroke:#444; stroke-width:1" />
               <path d="M42, 510 L50, 513 L42, 516 Z" 
        fill="#333" />
            </g>
            <g>
               <path d="M68.5, 528 L68.5 557.5 Q68.5 561.5
                72.5 561.5
                L79 561.5 "
        style="fill:none; stroke:#444; stroke-width:1" />
               <path d="M79, 558.5 L87, 561.5 L79, 564.5 Z" 
        fill="#333" />
            </g>
            <g>
               <path d="M68.5, 528 L68.5 606 Q68.5 610
                72.5 610
                L79 610 "
        style="fill:none; stroke:#444; stroke-width:1" />
               <path d="M79, 607 L87, 610 L79, 613 Z" 
        fill="#333" />
            </g>
            <g>
               <path d="M25, 40 L25 669.5 Q25 673.5
                29 673.5
                L42 673.5 "
        style="fill:none; stroke:#444; stroke-width:1" />
               <path d="M42, 670.5 L50, 673.5 L42, 676.5 Z" 
        fill="#333" />
            </g>
            <g>
               <path d="M68.5, 688.5 L68.5 718 Q68.5 722
                72.5 722
                L79 722 "
        style="fill:none; stroke:#444; stroke-width:1" />
               <path d="M79, 719 L87, 722 L79, 725 Z" 
        fill="#333" />
            </g>
            <g>
               <path d="M68.5, 688.5 L68.5 766.5 Q68.5 770.5
                72.5 770.5
                L79 770.5 "
        style="fill:none; stroke:#444; stroke-width:1" />
               <path d="M79, 767.5 L87, 770.5 L79, 773.5 Z" 
        fill="#333" />
            </g>
            <g>
               <path d="M25, 40 L25 830 Q25 834
                29 834
                L42 834 "
        style="fill:none; stroke:#444; stroke-width:1" />
               <path d="M42, 831 L50, 834 L42, 837 Z" 
        fill="#333" />
            </g>
            <g>
               <path d="M68.5, 849 L68.5 878.5 Q68.5 882.5
                72.5 882.5
                L79 882.5 "
        style="fill:none; stroke:#444; stroke-width:1" />
               <path d="M79, 879.5 L87, 882.5 L79, 885.5 Z" 
        fill="#333" />
            </g>
            <g>
               <path d="M68.5, 849 L68.5 927 Q68.5 931
                72.5 931
                L79 931 "
        style="fill:none; stroke:#444; stroke-width:1" />
               <path d="M79, 928 L87, 931 L79, 934 Z" 
        fill="#333" />
            </g>
            <g>
               <path d="M25, 40 L25 990.5 Q25 994.5
                29 994.5
                L42 994.5 "
        style="fill:none; stroke:#444; stroke-width:1" />
               <path d="M42, 991.5 L50, 994.5 L42, 997.5 Z" 
        fill="#333" />
            </g>
            <g>
               <path d="M68.5, 1009.5 L68.5 1039 Q68.5 1043
                72.5 1043
                L79 1043 "
        style="fill:none; stroke:#444; stroke-width:1" />
               <path d="M79, 1040 L87, 1043 L79, 1046 Z" 
        fill="#333" />
            </g>
            <g>
               <path d="M68.5, 1009.5 L68.5 1087.5 Q68.5 1091.5
                72.5 1091.5
                L79 1091.5 "
        style="fill:none; stroke:#444; stroke-width:1" />
               <path d="M79, 1088.5 L87, 1091.5 L79, 1094.5 Z" 
        fill="#333" />
            </g>
            <g>
               <path d="M25, 40 L25 1151 Q25 1155
                29 1155
                L42 1155 "
        style="fill:none; stroke:#444; stroke-width:1" />
               <path d="M42, 1152 L50, 1155 L42, 1158 Z" 
        fill="#333" />
            </g>
            <g>
               <path d="M68.5, 1170 L68.5 1199.5 Q68.5 1203.5
                72.5 1203.5
                L79 1203.5 "
        style="fill:none; stroke:#444; stroke-width:1" />
               <path d="M79, 1200.5 L87, 1203.5 L79, 1206.5 Z" 
        fill="#333" />
            </g>
            <g>
               <path d="M68.5, 1170 L68.5 1248 Q68.5 1252
                72.5 1252
                L79 1252 "
        style="fill:none; stroke:#444; stroke-width:1" />
               <path d="M79, 1249 L87, 1252 L79, 1255 Z" 
        fill="#333" />
            </g>
            <g>
               <path d="M25, 40 L25 1311.5 Q25 1315.5
                29 1315.5
                L42 1315.5 "
        style="fill:none; stroke:#444; stroke-width:1" />
               <path d="M42, 1312.5 L50, 1315.5 L42, 1318.5 Z" 
        fill="#333" />
            </g>
            <g>
               <path d="M68.5, 1330.5 L68.5 1360 Q68.5 1364
                72.5 1364
                L79 1364 "
        style="fill:none; stroke:#444; stroke-width:1" />
               <path d="M79, 1361 L87, 1364 L79, 1367 Z" 
        fill="#333" />
            </g>
            <g>
               <path d="M68.5, 1330.5 L68.5 1408.5 Q68.5 1412.5
                72.5 1412.5
                L79 1412.5 "
        style="fill:none; stroke:#444; stroke-width:1" />
               <path d="M79, 1409.5 L87, 1412.5 L79, 1415.5 Z" 
        fill="#333" />
            </g>
            <g>
               <path d="M25, 40 L25 1472 Q25 1476
                29 1476
                L42 1476 "
        style="fill:none; stroke:#444; stroke-width:1" />
               <path d="M42, 1473 L50, 1476 L42, 1479 Z" 
        fill="#333" />
            </g>
            <g>
               <path d="M68.5, 1491 L68.5 1520.5 Q68.5 1524.5
                72.5 1524.5
                L79 1524.5 "
        style="fill:none; stroke:#444; stroke-width:1" />
               <path d="M79, 1521.5 L87, 1524.5 L79, 1527.5 Z" 
        fill="#333" />
            </g>
            <g>
               <path d="M105.5, 1539.5 L105.5 1569 Q105.5 1573
                109.5 1573
                L116 1573 "
        style="fill:none; stroke:#444; stroke-width:1" />
               <path d="M116, 1570 L124, 1573 L116, 1576 Z" 
        fill="#333" />
            </g>
            <g>
               <path d="M105.5, 1539.5 L105.5 1617.5 Q105.5 1621.5
                109.5 1621.5
                L116 1621.5 "
        style="fill:none; stroke:#444; stroke-width:1" />
               <path d="M116, 1618.5 L124, 1621.5 L116, 1624.5 Z" 
        fill="#333" />
            </g>
            <g>
               <path d="M105.5, 1539.5 L105.5 1666 Q105.5 1670
                109.5 1670
                L116 1670 "
        style="fill:none; stroke:#444; stroke-width:1" />
               <path d="M116, 1667 L124, 1670 L116, 1673 Z" 
        fill="#333" />
            </g>
            <g>
               <path d="M105.5, 1539.5 L105.5 1714.5 Q105.5 1718.5
                109.5 1718.5
                L116 1718.5 "
        style="fill:none; stroke:#444; stroke-width:1" />
               <path d="M116, 1715.5 L124, 1718.5 L116, 1721.5 Z" 
        fill="#333" />
            </g>
            <g>
               <path d="M105.5, 1539.5 L105.5 1763 Q105.5 1767
                109.5 1767
                L116 1767 "
        style="fill:none; stroke:#444; stroke-width:1" />
               <path d="M116, 1764 L124, 1767 L116, 1770 Z" 
        fill="#333" />
            </g>
            <g>
               <path d="M25, 40 L25 1826.5 Q25 1830.5
                29 1830.5
                L42 1830.5 "
        style="fill:none; stroke:#444; stroke-width:1" />
               <path d="M42, 1827.5 L50, 1830.5 L42, 1833.5 Z" 
        fill="#333" />
            </g>
            <g>
               <path d="M25, 40 L25 1875 Q25 1879
                29 1879
                L42 1879 "
        style="fill:none; stroke:#444; stroke-width:1" />
               <path d="M42, 1876 L50, 1879 L42, 1882 Z" 
        fill="#333" />
            </g>
            <g>
               <path d="M68.5, 1894 L68.5 1923.5 Q68.5 1927.5
                72.5 1927.5
                L87 1927.5 "
        style="fill:none; stroke:#444; stroke-width:1" />
               false
            </g>
            <g>
               <path d="M68.5, 1894 L68.5 1972 Q68.5 1976
                72.5 1976
                L87 1976 "
        style="fill:none; stroke:#444; stroke-width:1" />
               false
            </g>
            <g>
               <path d="M68.5, 1894 L68.5 2020.5 Q68.5 2024.5
                72.5 2024.5
                L87 2024.5 "
        style="fill:none; stroke:#444; stroke-width:1" />
               false
            </g>
            <g>
               <path d="M68.5, 1894 L68.5 2069 Q68.5 2073
                72.5 2073
                L87 2073 "
        style="fill:none; stroke:#444; stroke-width:1" />
               false
            </g>
            <g>
               <path d="M68.5, 1894 L68.5 2117.5 Q68.5 2121.5
                72.5 2121.5
                L87 2121.5 "
        style="fill:none; stroke:#444; stroke-width:1" />
               false
            </g>
            <g>
               <path d="M68.5, 1894 L68.5 2166 Q68.5 2170
                72.5 2170
                L87 2170 "
        style="fill:none; stroke:#444; stroke-width:1" />
               false
            </g>
            <g>
               <path d="M68.5, 1894 L68.5 2214.5 Q68.5 2218.5
                72.5 2218.5
                L87 2218.5 "
        style="fill:none; stroke:#444; stroke-width:1" />
               false
            </g>
            <g>
               <path d="M68.5, 1894 L68.5 2263 Q68.5 2267
                72.5 2267
                L87 2267 "
        style="fill:none; stroke:#444; stroke-width:1" />
               false
            </g>
            <g>
               <path d="M68.5, 1894 L68.5 2311.5 Q68.5 2315.5
                72.5 2315.5
                L87 2315.5 "
        style="fill:none; stroke:#444; stroke-width:1" />
               false
            </g>
            <g>
               <path d="M68.5, 1894 L68.5 2360 Q68.5 2364
                72.5 2364
                L87 2364 "
        style="fill:none; stroke:#444; stroke-width:1" />
               false
            </g>
            </svg>